<svg width="978" height="847" fill="none" xmlns="http://www.w3.org/2000/svg"><g clip-path="url(#a)"><path d="M394.26 261.9v22.46c.06.14 1.51 3.24 5.75 3.92 3.08.49 6.32-.49 8.15-2.5l-.96-27.09c-1.84-1.52-4.6-2.22-7.19-1.78-3.07.52-5.42 2.53-5.75 4.99z" fill="#FF897B"/><mask id="b" style="mask-type:luminance" maskUnits="userSpaceOnUse" x="394" y="256" width="15" height="33"><path d="M394.26 261.9v22.46c.06.14 1.51 3.24 5.75 3.92 3.08.49 6.32-.49 8.15-2.5l-.96-27.09c-1.84-1.52-4.6-2.22-7.19-1.78-3.07.52-5.42 2.53-5.75 4.99z" fill="#fff"/></mask><g mask="url(#b)"><path d="M393.92 245.35v22.46a9.1 9.1 0 0 0 4.93 3.92c3.48 1.14 7.61.23 10.55-2.32l-4.38-27.27c-1.58-1.52-3.94-2.22-6.16-1.78-2.64.52-4.66 2.53-4.94 4.99z" fill="#5A2537"/></g><path d="M582.72 253.02v22.46c.06.14 1.51 3.24 5.75 3.92 3.08.49 6.32-.49 8.15-2.5l-.96-27.09c-1.84-1.52-4.6-2.22-7.19-1.78-3.07.52-5.43 2.53-5.75 4.99z" fill="#FF897B"/><mask id="c" style="mask-type:luminance" maskUnits="userSpaceOnUse" x="582" y="247" width="15" height="33"><path d="M582.72 253.02v22.46c.06.14 1.51 3.24 5.75 3.92 3.08.49 6.32-.49 8.15-2.5l-.96-27.09c-1.84-1.52-4.6-2.22-7.19-1.78-3.07.52-5.43 2.53-5.75 4.99z" fill="#fff"/></mask><g mask="url(#c)"><path d="M582.38 236.47v22.46a9.1 9.1 0 0 0 4.93 3.92c3.48 1.14 7.61.23 10.55-2.32l-4.38-27.27c-1.58-1.52-3.94-2.22-6.16-1.78-2.65.52-4.66 2.53-4.94 4.99z" fill="#5A2537"/></g><path d="M617.53 173.77c.36-1.28 2.15-7.21 7.92-10.2.81-.42 7.08-3.69 11.27-.63 4.06 2.95 3.3 9.44 2.94 12.46-.71 6.03-4.22 14.6-11.52 16.72-2.27.66-4.31.52-5.63.32-1.66-6.23-3.32-12.45-4.98-18.67z" fill="#FB6B75"/><path d="M626.7 186.11c2.89-5.16 5.79-10.33 8.68-15.49.31.94 1.4 4.67-.37 8.71-2.33 5.3-7.67 6.63-8.31 6.78z" fill="#AF516A"/><path d="M619.12 143.13c1.57 5.69 3.61 13.41 5.76 22.64 1.75 7.51 2.67 12.18 4.57 21.56 7.46 36.83 9.1 43.15 5 50.23-1.56 2.69-4.54 6.55-10.77 9.79-8.82 1.34-17.8 2.62-26.92 3.81-5.66.74-11.28 1.44-16.84 2.1-3.03-.11-7.62-.79-11.52-3.94-4.58-3.71-5.7-8.83-7.7-16.79-1.47-5.86-3.78-14.72-7.07-26.01-2.56-9.16-5.54-22.42-6.63-38.66-1.48-22.05-2.44-36.28 6.97-45.71 10.06-10.08 25.62-8.29 28.53-7.96 24.23 2.79 35.75 27.04 36.62 28.94z" fill="#FF897B"/><path d="M631.7 166.53c.42 8.05-1.56 14.41-2.98 17.96-1.57-6.62-3.07-13.43-4.51-20.41-2.2-10.74-4.07-21.17-5.66-31.25-3.6-5.26-10.05-12.54-20.09-16.09-20.27-7.17-44.99 4.41-50.9 20.09-.41 1.09-.6 2.05-.89 3.27-1.42 6.14-1.36 11.66.85 27.16.42 2.95 1 6.82 1.75 11.38 2.49 14.16 4.09 23.26 4.1 23.3l.01.02s-1.78-7.36-7.39-11.09c-2.83-1.88-5.96-2.37-8.61-2.39-2.66-5.94-6.96-17.69-6.32-32.94.74-17.46 7.56-30.05 11.05-35.64 23.45-18.89 53.57-19.32 70.99-4 14.5 12.76 15.47 32.29 15.58 37.01 1.27 3.13 2.72 7.8 3.02 13.62z" fill="#4B1610"/><path d="M612.52 136.04c.33 1.65.7 4.8-.69 8.08-1.86 4.37-5.72 6.29-9.17 7.98-4.96 2.42-9.76 3.04-13.4 3.05 1.08-1.03 3.27-3.41 4.13-7.12.92-3.98.43-10.04-4.13-13.54-4.85-3.73-10.79-1.86-11.39-1.65 1.06 1.75 2.36 4.46 2.69 7.89 1.08 11.24-8.96 23.46-21.16 26.45-13.1 3.21-23.79-5.42-25.23-6.62 1.35.6 7.42 3.42 8.39 8.71 1.33 7.27-7.75 14.8-16.09 15.83-4.63.57-13.36-.32-16.21-7.12-2.81-6.71 2.41-13.64 2.63-13.93-.54-.11-7.19-1.62-9.45-7.5-2.16-5.62.57-12.91 7.01-16.47-3.87-7.45-3.03-16.55 2.13-23.08 5.27-6.69 14.1-9.46 22.22-6.99.33-1.02 6.75-19.89 25.79-24.41 13.69-3.25 28.24 2.25 36.93 13.99 6.77-3.15 14.69-2.27 20.47 2.29 6.29 4.96 9.01 13.46 6.82 21.43 8.23-2.67 17.15 2.01 19.78 10.37 2.63 8.35-1.98 17.42-10.21 20.09 1.24 2.7.99 5.82-.69 8.08-2.08 2.8-6.03 3.8-9.48 2.26-1.03-4.7-2.07-8.54-2.88-11.32-1.59-5.49-2.39-7.25-2.69-7.89a32.164 32.164 0 0 0-6.12-8.86z" fill="#AA2B0A"/><path d="M556.98 216.09c4.85 8.28 8.48 14.58 13.61 14.89 9.9.58 21.6-21.38 16.07-30.33-2.65-4.29-6.31-5.48-6.31-5.48-1.68-.55-3.65-.61-8.42-1.9-.54-.15-.99-.27-1.29-.36-.57-.5-6.7-5.85-11.97-4.66-6.22 1.41-6.65 10.84-6.77 12.56-.39 5.8 2.06 10.11 5.08 15.28z" fill="url(#d)"/><path d="M633.86 216.35c-2.07 6.31-8.69 11.93-15.53 11.93-12.73.02-21-19.32-16.96-27.33 1.35-2.66 4.85-5.65 5.32-6.04 2.81-2.36 5.55-3.71 7.44-4.47.69-.78 6.75-7.48 11.22-5.77 1.94.74 2.79 2.76 5.19 12.34 2.79 11.13 4.17 16.74 3.32 19.34z" fill="url(#e)"/><path d="M596.4 120.3c2.4.51 4.71 1.46 6.85 2.7 2.13 1.25 4.1 2.82 5.72 4.72 1.58 1.9 3.05 3.96 3.93 6.34.88 2.38 1.06 5.02.51 7.5-.58 2.48-1.84 4.76-3.5 6.64-1.64 1.92-3.87 3.34-6.21 4.16-1.17.43-2.35.78-3.53 1.13-1.17.35-2.37.67-3.58.92-2.42.47-4.88.74-7.33.72 4.9-.34 9.63-1.72 14.15-3.49 2.23-.92 4.27-2.2 5.8-4.04 1.55-1.8 2.71-3.96 3.21-6.26.54-2.3.4-4.74-.39-6.97-.78-2.25-2.21-4.24-3.66-6.16-1.49-1.89-3.34-3.48-5.39-4.8-2.01-1.35-4.24-2.38-6.58-3.11z" fill="#C64929"/><path d="M577.87 132.83c1.45 2.34 2.45 4.98 2.85 7.73.38 2.75.15 5.6-.66 8.27s-2.11 5.19-3.85 7.38c-.86 1.1-1.83 2.11-2.85 3.06-1 .95-2.05 1.87-3.17 2.7-4.47 3.31-9.87 5.45-15.44 5.73-2.78.17-5.57-.12-8.26-.79-2.68-.7-5.25-1.79-7.62-3.19 4.85 2.59 10.41 3.85 15.84 3.4 5.44-.39 10.7-2.48 15.04-5.76 1.1-.8 2.13-1.69 3.13-2.63 1-.93 1.95-1.9 2.8-2.96 1.71-2.11 2.96-4.56 3.84-7.13 1.72-5.14 1.06-11.02-1.65-15.81z" fill="#4B1610"/><path d="M580.93 209.58c-.15-.06-1.22-.47-2.25.13-.67.38-.96.98-1.06 1.21" stroke="#9C2831" stroke-miterlimit="10"/><path d="M594.37 185.8c1.71.69 3.28 1.85 4.53 3.28 1.25 1.43 2.2 3.2 2.74 5.07.56 1.87.67 3.83.52 5.72-.2 1.89-.64 3.75-1.49 5.46l-.48.97-.71-.54c-.55-.41-1.06-.87-1.59-1.33-.52-.45-1.05-.9-1.54-1.41l.08-.13 3.52 2.08-.14.05c.57-1.68.86-3.46.96-5.23.06-1.78-.08-3.56-.53-5.28-.45-1.71-1.19-3.36-2.22-4.81a15.573 15.573 0 0 0-3.73-3.78l.08-.12z" fill="#9C2831"/><path d="M552.72 200.26c-1.86-5.81-6.29-10.11-11.65-11.1-3.78-.7-9.57.02-12.28 4.13-3.15 4.75.26 11.09 1.85 14.04 3.25 6.04 10.32 12.87 18.99 12.28 3.27-.22 5.84-1.44 7.41-2.37l-4.32-16.98z" fill="#FB6B75"/><path d="M606.17 167.4c-.34-.03-1.38-.1-2.46.56-.29.18-1.17.76-1.64 1.95M571.59 170.5c.33-.07 1.37-.25 2.51.28.31.14 1.24.63 1.84 1.75" stroke="#7A323B" stroke-miterlimit="10"/><path d="M609.67 156.29c-.9-.81-2.55-.14-3.38.19-2.13.86-3.75 2.73-4.26 4.83-.16.67-.41 1.72.13 2.29.74.79 2.5.14 3.38-.19 1.02-.38 3.46-1.29 4.32-3.69.08-.23.86-2.48-.19-3.43zM570.96 160.67c.57-1.08 2.34-1.04 3.23-1.02 2.29.05 4.46 1.23 5.65 3.02.38.58.98 1.47.67 2.19-.43 1-2.3 1.01-3.23 1.02-1.09.01-3.68.02-5.31-1.93-.17-.19-1.67-2.02-1.01-3.28z" fill="#4B1610"/><path d="M611.85 217.02c-1.68-.58-3.88-1.29-6.47-2.02-1.19-.33-4.13-1.15-7.3-1.8-3.19-.65-7.8-1.36-13.65-1.53-.95-.14-1.9-.28-2.85-.41l-1.72-.48c1.82 2.98 5.53 7.97 11.89 10.81 1.95.87 4.56 2 8.01 1.84 6.63-.29 10.97-5.09 12.09-6.41z" fill="#240B0F"/><mask id="f" style="mask-type:luminance" maskUnits="userSpaceOnUse" x="579" y="210" width="33" height="14"><path d="M611.85 217.02c-1.68-.58-3.88-1.29-6.47-2.02-1.19-.33-4.13-1.15-7.3-1.8-3.19-.65-7.8-1.36-13.65-1.53-.95-.14-1.9-.28-2.85-.41l-1.72-.48c1.82 2.98 5.53 7.97 11.89 10.81 1.95.87 4.56 2 8.01 1.84 6.63-.29 10.97-5.09 12.09-6.41z" fill="#fff"/></mask><g mask="url(#f)"><path d="M606.4 220.77c.09-1.67-5.15-3.24-8.14-4.13-3.32-.99-4.85-.92-5.7-.83-1.81.21-5.35 1.09-5.51 2.61-.21 2.06 5.79 5.17 11.58 5.09 3.47-.06 7.69-1.27 7.77-2.74z" fill="#73354A"/></g><mask id="g" style="mask-type:luminance" maskUnits="userSpaceOnUse" x="579" y="210" width="33" height="14"><path d="M611.85 217.02c-1.68-.58-3.88-1.29-6.47-2.02-1.19-.33-4.13-1.15-7.3-1.8-3.19-.65-7.8-1.36-13.65-1.53-.95-.14-1.9-.28-2.85-.41l-1.72-.48c1.82 2.98 5.53 7.97 11.89 10.81 1.95.87 4.56 2 8.01 1.84 6.63-.29 10.97-5.09 12.09-6.41z" fill="#fff"/></mask><g mask="url(#g)"><path d="M606.03 213.9c.14 2.51-1.78 4.69-4.26 4.83-2.48.14-4.62-1.81-4.76-4.32-.13.25-1.15 2.13-3.26 2.48-1.7.28-2.99-.63-3.44-.95-2.54-1.8-2.57-5.18-2.57-5.6 3.25.43 6.68.99 10.27 1.72 2.81.56 5.48 1.19 8.02 1.84z" fill="#DBF1FF"/></g><path d="M611.85 217.02c-1.68-.58-3.88-1.29-6.47-2.02-1.19-.33-4.13-1.15-7.3-1.8-3.19-.65-7.8-1.36-13.65-1.53-.95-.14-1.9-.28-2.85-.41l-1.72-.48c1.82 2.98 5.53 7.97 11.89 10.81 1.95.87 4.56 2 8.01 1.84 6.63-.29 10.97-5.09 12.09-6.41z" stroke="#601E1B" stroke-width=".5" stroke-miterlimit="10"/><path d="M601.09 185.48c1.31 6.92 6.64 15.9 12.71 15.36 5.51-.49 9.32-8.37 9.96-14.34.64-5.99-1.85-10.66-2.94-12.46-1.25-2.23-3.09-2.48-5.82-3.12-7.04-1.64-12.73 3.62-13.33 4.2-.66 2.22-1.42 5.97-.58 10.36z" fill="#fff"/><mask id="h" style="mask-type:luminance" maskUnits="userSpaceOnUse" x="600" y="170" width="24" height="31"><path d="M601.09 185.48c1.31 6.92 6.64 15.9 12.71 15.36 5.51-.49 9.32-8.37 9.96-14.34.64-5.99-1.85-10.66-2.94-12.46-1.25-2.23-3.09-2.48-5.82-3.12-7.04-1.64-12.73 3.62-13.33 4.2-.66 2.22-1.42 5.97-.58 10.36z" fill="#fff"/></mask><g mask="url(#h)"><path d="M597.26 184.37c.89 6.57 6.14 11.26 11.73 10.48 5.59-.78 9.41-6.74 8.52-13.3-.89-6.56-6.14-11.26-11.73-10.48-5.59.78-9.41 6.73-8.52 13.3z" fill="#304442"/></g><path d="M601.09 185.48c1.31 6.92 6.64 15.9 12.71 15.36 5.51-.49 9.32-8.37 9.96-14.34.64-5.99-1.85-10.66-2.94-12.46-1.25-2.23-3.09-2.48-5.82-3.12-7.04-1.64-12.73 3.62-13.33 4.2-.66 2.22-1.42 5.97-.58 10.36z" stroke="#000" stroke-width=".75" stroke-miterlimit="10"/><path d="M580.53 186.61c.82 7.51-3.23 16.99-9.22 17.74-5.58.7-10.77-6.7-12.72-11.87-2.03-5.38-1.77-10.25-.77-12.61.9-1.17 2.86-3.36 6.08-4.51 6.55-2.32 12.38 1.82 13.01 2.28 1.28 1.73 3.17 4.82 3.62 8.97z" fill="#fff"/><mask id="i" style="mask-type:luminance" maskUnits="userSpaceOnUse" x="557" y="174" width="24" height="31"><path d="M580.53 186.61c.82 7.51-3.23 16.99-9.22 17.74-5.58.7-10.77-6.7-12.72-11.87-2.03-5.38-1.77-10.25-.77-12.61.9-1.17 2.86-3.36 6.08-4.51 6.55-2.32 12.38 1.82 13.01 2.28 1.28 1.73 3.17 4.82 3.62 8.97z" fill="#fff"/></mask><g mask="url(#i)"><path d="M555.55 189.42c.89 6.57 6.14 11.26 11.73 10.48 5.59-.78 9.41-6.74 8.52-13.3-.89-6.57-6.14-11.26-11.73-10.48-5.59.77-9.41 6.73-8.52 13.3z" fill="#304442"/></g><path d="M580.53 186.61c.82 7.51-3.23 16.99-9.22 17.74-5.58.7-10.77-6.7-12.72-11.87-2.03-5.38-1.77-10.25-.77-12.61.9-1.17 2.86-3.36 6.08-4.51 6.55-2.32 12.38 1.82 13.01 2.28 1.28 1.73 3.17 4.82 3.62 8.97z" stroke="#000" stroke-miterlimit="10"/><path d="M552.61 209.5c-4.72-3.56-9.43-7.12-14.15-10.68.09.98.58 4.84 3.82 7.82 4.26 3.92 9.68 2.98 10.33 2.86z" fill="#AF516A"/><path d="M347.1 202.94c-.77-1.16-4.48-6.5-10.92-7.42-.91-.13-7.91-1.14-10.81 3.49-2.81 4.48.12 10.77 1.48 13.7 2.72 5.85 8.94 13.23 16.53 12.7 2.36-.16 4.23-1.05 5.4-1.75l-1.68-20.72z" fill="#FB6B75"/><path d="M343.9 166.58c.64 16.36.98 21.77 1.16 23.22.03.26.3 2.21.54 4.92.03.36.05.62.06.69.07.79.68 7.87 1.67 16.43 1.42 12.35 2.41 20.91 4.7 31.83 2.46 11.75 3.95 14.36 6 16.5 5.08 5.32 12.23 6.33 16.11 6.53 2.59-.36 6.02-.85 10.06-1.49 2.85-.45 8.02-1.28 13.5-2.31 4.89-.92 11.81-2.37 20.21-4.63 2.95-1.8 7.6-5.31 9.74-11.17 1.5-4.09 1.16-7.68.95-9.74-2.03-19.55-3.04-29.32-3.19-30-4.79-21.96-.82-20.41-5.29-38.87-5.21-21.48-8.57-35.34-20.39-41.5-12.63-6.59-26.93-.21-29.6.99-22.27 9.93-25.97 36.52-26.23 38.6z" fill="#FF897B"/><path d="M337.18 192.569c.7 2.68 1.56 6.09 3.97 9.93 2.04 3.25 4.34 5.51 6.03 6.93-.31-2.59-.76-6.44-1.25-11.14-.55-5.23-.91-9.27-1-10.25-1.19-13.49-1.02-22.62-.09-32.21 1.19-12.26 6.91-18.62 9.07-20.75 15.19-14.98 44.63-8.81 54.58 3.86.72.92 1.19 1.77 1.83 2.85 3.2 5.43 4.8 10.71 7.35 26.16.49 2.94 1.1 6.81 1.75 11.38 1.88 14.25 3.09 23.42 3.1 23.46v.02s-.51-7.56 3.72-12.8c2.13-2.64 4.97-4.06 7.49-4.86.75-6.46 1.33-18.96-3.87-33.31-5.95-16.43-16.24-26.39-21.25-30.67-28.04-10.97-56.9-2.33-68.91 17.52-10 16.53-5.05 35.45-3.74 39.98-.26 3.37-.24 8.26 1.22 13.9z" fill="#4B1610"/><path d="M352.21 144.619c-.45-.84-2.79-.45-4.6-.03-1.37.32-3.87 1.12-6.15 3.21-.75.69-5.1 4.67-4.1 8.91 1.01 4.28 6.84 6.13 10.6 6.24 5.35.15 9.1-3.13 10.6-4.46 5.76-5.05 6.67-12.05 6.86-14.17-5.71 6.6-6.96 15.19-3.39 20.85 4.07 6.45 13.03 6.91 15.59 7.04 4.63.23 8.37-.91 10.63-1.82-1.45-.13-4.52-.64-6.71-3.02-3.97-4.31-1.76-11.18-1.07-13.31 2.16-6.71 7.51-10.21 9.45-11.35-.76 2.26-2.05 7.15-.53 12.83 1.88 7.04 7.88 14.67 16.93 15.89 9.13 1.23 18.45-4.43 22.07-13.89-4.25 2.34-6.96 6.49-6.93 10.83.05 6.42 6.09 10.73 11.05 11.76 7.14 1.48 14.91-3.24 17.25-10.49 2.04-6.31-.36-13.49-6.02-17.67.67-.53 5.72-4.68 5.52-10.87-.2-6.37-5.87-12.33-13.78-13.31-1.74-11.85-9.58-21.14-19.54-23.41-7.67-1.74-14.18 1.24-16.57 2.5-6.3-9.55-17.32-14.72-28.16-13.19-12.77 1.81-23.1 12.61-24.58 26.28-9.16-2.2-18.34 2.29-21.75 10.08-2.75 6.27-1.41 13.87 3.38 19.39-7.97.89-13.81 7.94-13.27 15.65.51 7.29 6.6 13.26 14.16 13.62-.26.65-1.96 5.08.19 8.37 2.49 3.79 9.44 5.04 15.58.97-.14-3.92-.28-7.85-.43-11.77-.08-2.08-.08-3.78-.06-5.27 0 0 .02-1.25.07-2.31.24-5.34 2.65-13.96 5.67-20.7.72-1.56 2.44-2.63 2.04-3.38z" fill="#AA2B0A"/><path d="M423.34 217.379c-2.13 9.36-3.7 16.46-8.5 18.29-9.27 3.53-27.03-13.9-24.44-24.1 1.24-4.89 4.37-7.12 4.37-7.12 1.44-1.03 3.3-1.68 7.46-4.35.47-.3.86-.56 1.12-.73.39-.65 4.64-7.59 10.01-8.04 6.36-.53 9.6 8.34 10.23 9.95 2.12 5.42 1.08 10.26-.25 16.1z" fill="url(#j)"/><path d="M356.14 243.009c4.84 4.54 13.34 6.29 19.35 3.01 11.17-6.09 9.15-27.03 1.76-32.11-2.46-1.69-6.97-2.62-7.57-2.74-3.6-.73-6.65-.59-8.67-.35-.98-.35-9.51-3.32-12.61.33-1.34 1.58-1.12 3.76 1.36 13.32 2.89 11.08 4.38 16.66 6.38 18.54z" fill="url(#k)"/><path d="M371.57 139.56c-2.02 1.41-3.85 3.06-5.36 4.97-1.56 1.88-2.85 3.96-3.7 6.22-.81 2.28-1.57 4.62-1.62 7.01-.07 2.38.55 4.75 1.78 6.78 1.2 2.04 2.97 3.75 5.01 4.99 2.03 1.27 4.39 1.89 6.79 2.11 4.84.33 9.79-.09 14.53-1.42-2.31.86-4.72 1.44-7.17 1.82-1.22.18-2.47.28-3.7.34s-2.48.1-3.72.03c-5.04-.15-9.95-3-12.6-7.36-1.3-2.2-1.93-4.78-1.82-7.32.1-2.55.88-4.97 1.82-7.26.97-2.31 2.38-4.42 4.04-6.25 1.65-1.84 3.57-3.45 5.72-4.66z" fill="#C64929"/><path d="M389.93 142.72c-.67 2.48-1.04 5.04-.96 7.6.04 2.55.56 5.09 1.56 7.41 2.05 4.63 5.65 8.58 10.03 11.1 2.18 1.31 4.56 2.27 7.08 2.44 2.51.21 5.03-.35 7.41-1.23 4.82-1.68 8.94-5.08 11.85-9.31-1.33 2.2-3.02 4.2-4.98 5.9a22.934 22.934 0 0 1-6.67 3.95c-2.39.99-5.03 1.56-7.67 1.37-2.64-.15-5.17-1.15-7.4-2.47-2.27-1.31-4.28-3.01-6.02-4.96-1.72-1.95-3.21-4.14-4.17-6.57-1.97-4.88-1.71-10.39-.06-15.23z" fill="#4B1610"/><path d="M407.28 215.64c.14-.08 1.15-.61 2.25-.14.71.3 1.07.86 1.2 1.07M389.88 243.1c.11-.11.95-.89 2.14-.72.76.11 1.26.55 1.44.72M370.02 220.38c-.16 0-1.3.01-2.05.95-.48.6-.53 1.27-.54 1.52" stroke="#9C2831" stroke-miterlimit="10"/><path d="M388.7 215.18c-.8.48-1.61.88-2.44 1.26l-.52.24-.29-.74c-.64-1.66-1.18-3.35-1.55-5.08-.21-.86-.36-1.73-.49-2.61-.15-.87-.25-1.75-.32-2.63-.2-1.76-.17-3.54-.05-5.31.12-1.77.29-3.54.69-5.29h.15l.27 5.22.13 2.61c.07.87.16 1.74.26 2.6.21 1.73.41 3.46.69 5.18.27 1.72.58 3.44.94 5.14l-.11-.07 2.59-.69.05.17z" fill="#9C2831"/><path d="M422.25 198.16c0-.72.18-8.53 6.57-12.71 3.19-2.08 8.79-3.8 12.91-1.14 4.79 3.09 4.21 10.27 3.94 13.6-.56 6.91-4.42 15.96-12.48 18.86-2.67.96-5.09 1-6.63.9-1.44-6.5-2.88-13-4.31-19.51z" fill="#FB6B75"/><path d="M362.79 183.73a3.99 3.99 0 0 1 2.52-.2c.33.08 1.34.38 2.15 1.37M396.7 178.29c-.34.03-1.38.17-2.31 1.02-.25.23-1 .97-1.23 2.23" stroke="#7A323B" stroke-miterlimit="10"/><path d="M357.59 176.84c.24-1.19 1.96-1.64 2.82-1.87 2.22-.59 4.64-.06 6.3 1.31.53.44 1.36 1.13 1.27 1.91-.12 1.08-1.92 1.61-2.82 1.87-1.05.31-3.54 1.04-5.67-.36-.21-.14-2.18-1.48-1.9-2.86zM399.24 171.92c-.32-1.17-2.06-1.53-2.93-1.71-2.25-.46-4.62.22-6.18 1.7-.5.48-1.27 1.22-1.13 1.99.2 1.07 2.02 1.49 2.93 1.71 1.06.25 3.59.83 5.61-.71.2-.15 2.07-1.6 1.7-2.98z" fill="#4B1610"/><path d="M369.91 223.54c5.71.19 12.8-.05 20.79-1.43 7.15-1.24 13.28-3.08 18.24-4.93.4 8.66-3.64 16.58-10.5 20.33-6.36 3.48-12.67 2.02-13.63 1.78-7.23-1.78-12.95-7.86-14.9-15.75z" fill="#240B0F"/><mask id="l" style="mask-type:luminance" maskUnits="userSpaceOnUse" x="369" y="217" width="40" height="23"><path d="M369.91 223.54c5.71.19 12.8-.05 20.79-1.43 7.15-1.24 13.28-3.08 18.24-4.93.4 8.66-3.64 16.58-10.5 20.33-6.36 3.48-12.67 2.02-13.63 1.78-7.23-1.78-12.95-7.86-14.9-15.75z" fill="#fff"/></mask><g mask="url(#l)"><path d="M378.17 233.46c2.8-4.57 7.74-5.9 11.23-6.86 5.19-1.43 8.78-.82 9.8-.62 2.03.39 6.91 1.45 7.22 3.48.76 5-26.32 15.74-29.85 10.78-1.37-1.93 1.04-5.86 1.6-6.78z" fill="#73354A"/></g><mask id="m" style="mask-type:luminance" maskUnits="userSpaceOnUse" x="369" y="217" width="40" height="23"><path d="M369.91 223.54c5.71.19 12.8-.05 20.79-1.43 7.15-1.24 13.28-3.08 18.24-4.93.4 8.66-3.64 16.58-10.5 20.33-6.36 3.48-12.67 2.02-13.63 1.78-7.23-1.78-12.95-7.86-14.9-15.75z" fill="#fff"/></mask><g mask="url(#m)"><path d="M381.06 222.599c-.18-.07-4.01-1.54-4.76-.47-.58.83.75 3.07 3.39 5.45.39.35 2.39 2.08 5.42 1.96 3-.12 4.85-1.96 5.21-2.35.77.4 2.33 1.09 4.3.92 2.81-.23 4.59-1.99 5.42-2.82 2.65-2.64 3.11-5.93 3.22-7.09a72.266 72.266 0 0 1-13.36 3.52c-3.2.51-6.16.78-8.84.88z" fill="#DBF1FF"/></g><mask id="n" style="mask-type:luminance" maskUnits="userSpaceOnUse" x="369" y="217" width="40" height="23"><path d="M369.91 223.54c5.71.19 12.8-.05 20.79-1.43 7.15-1.24 13.28-3.08 18.24-4.93.4 8.66-3.64 16.58-10.5 20.33-6.36 3.48-12.67 2.02-13.63 1.78-7.23-1.78-12.95-7.86-14.9-15.75z" fill="#fff"/></mask><g mask="url(#n)"><path d="M378.63 236.74c-.21 1.42 6.8 5.03 13.8 3.82 5.69-.98 10.49-5 10-6.28-.27-.71-2.11-.35-13.15.84-9.22 1-10.56 1.03-10.65 1.62z" fill="#DBF1FF"/></g><path d="M369.91 223.54c5.71.19 12.8-.05 20.79-1.43 7.15-1.24 13.28-3.08 18.24-4.93.4 8.66-3.64 16.58-10.5 20.33-6.36 3.48-12.67 2.02-13.63 1.78-7.23-1.78-12.95-7.86-14.9-15.75z" stroke="#601E1B" stroke-width=".5" stroke-miterlimit="10"/><path d="M373.07 199.439c.83 6.99-1.55 17.16-7.5 18.47-5.4 1.18-11.4-5.18-13.8-10.68-2.41-5.52-1.44-10.72-.94-12.77.52-2.5 2.2-3.29 4.62-4.72 6.22-3.68 13.23-.38 13.98-.01 1.27 1.92 3.12 5.27 3.64 9.71z" fill="#fff"/><mask id="o" style="mask-type:luminance" maskUnits="userSpaceOnUse" x="350" y="188" width="24" height="31"><path d="M373.07 199.439c.83 6.99-1.55 17.16-7.5 18.47-5.4 1.18-11.4-5.18-13.8-10.68-2.41-5.52-1.44-10.72-.94-12.77.52-2.5 2.2-3.29 4.62-4.72 6.22-3.68 13.23-.38 13.98-.01 1.27 1.92 3.12 5.27 3.64 9.71z" fill="#fff"/></mask><g mask="url(#o)"><path d="M373.4 197.75c1.13 6.53-2.47 12.59-8.04 13.53-5.57.94-11-3.6-12.13-10.13-1.13-6.53 2.47-12.59 8.04-13.53 5.57-.94 11.01 3.59 12.13 10.13z" fill="#304442"/></g><path d="M373.07 199.439c.83 6.99-1.55 17.16-7.5 18.47-5.4 1.18-11.4-5.18-13.8-10.68-2.41-5.52-1.44-10.72-.94-12.77.53-2.5 2.2-3.29 4.62-4.72 6.22-3.68 13.23-.38 13.98-.01 1.27 1.92 3.12 5.27 3.64 9.71z" stroke="#000" stroke-width=".75" stroke-miterlimit="10"/><path d="M393.02 196.35c1.48 7.41 8.19 15.24 14.12 14.15 5.53-1.01 8.26-9.62 8.56-15.14.32-5.75-1.39-10.31-3.06-12.25-1.21-.84-3.74-2.35-7.16-2.47-6.95-.24-11.26 5.45-11.72 6.09-.69 2-1.56 5.51-.74 9.62z" fill="#fff"/><mask id="p" style="mask-type:luminance" maskUnits="userSpaceOnUse" x="392" y="180" width="24" height="31"><path d="M393.02 196.35c1.48 7.41 8.19 15.24 14.12 14.15 5.53-1.01 8.26-9.62 8.56-15.14.32-5.75-1.39-10.31-3.06-12.25-1.21-.84-3.74-2.35-7.16-2.47-6.95-.24-11.26 5.45-11.72 6.09-.69 2-1.56 5.51-.74 9.62z" fill="#fff"/></mask><g mask="url(#p)"><path d="M415.16 189.99c1.13 6.53-2.47 12.59-8.04 13.53-5.57.94-11-3.6-12.13-10.13-1.13-6.53 2.47-12.59 8.04-13.53 5.57-.94 11 3.59 12.13 10.13z" fill="#304442"/></g><path d="M393.02 196.35c1.48 7.41 8.19 15.24 14.12 14.15 5.53-1.01 8.26-9.62 8.56-15.14.32-5.75-1.39-10.31-3.06-12.25-1.21-.84-3.74-2.35-7.16-2.47-6.95-.24-11.26 5.45-11.72 6.09-.69 2-1.56 5.51-.74 9.62z" stroke="#000" stroke-miterlimit="10"/><path d="M427.12 205.95c2.89-5.15 5.78-10.31 8.68-15.46.31.94 1.41 4.67-.36 8.7-2.34 5.29-7.68 6.61-8.32 6.76zM330.79 201.97c1.51 4.51 3.74 7.44 5.3 9.14 2.62 2.85 10.01 4.04 9.98 3.21.34-1.58-9.85-9.81-15.28-12.35z" fill="#AF516A"/><path d="M369.92 691.45c2.76 29.35 5.52 58.7 8.29 88.05-1.57 8.51 4.75 15.52 10.87 15.6 5.6.07 11.62-5.67 11.5-13.47-3.41-27.87-6.81-55.75-10.22-83.62-6.81-2.19-13.62-4.37-20.44-6.56z" fill="#FC9692"/><path d="M374.05 754.53c1.88 11.17 3.75 22.35 5.62 33.52 2.36 2.03 4.56 2.66 5.88 2.89 6.07 1.06 13-3 17.16-10.25l-5.07-29.62a41.94 41.94 0 0 1-9.33 3.06c-5.83 1.17-10.83.88-14.26.4z" fill="#EAE7F0"/><path d="M381.26 756.4c.25 2.47.49 4.93.74 7.4.19 1.9 3.19 1.92 3 0-.25-2.47-.49-4.93-.74-7.4-.19-1.9-3.2-1.92-3 0zM390.28 755.38c.51 2.65 1.03 5.31 1.54 7.96.37 1.89 3.26 1.09 2.89-.8-.51-2.65-1.03-5.31-1.54-7.96-.36-1.89-3.25-1.09-2.89.8z" fill="#D2D6DF"/><path d="M425.35 687.27c2.76 29.35 5.52 58.7 8.29 88.05-1.57 8.51 4.75 15.519 10.87 15.599 5.6.07 11.62-5.669 11.5-13.469-3.41-27.87-6.81-55.75-10.22-83.62-6.82-2.18-13.63-4.37-20.44-6.56z" fill="#FC9692"/><path d="m429.73 751.23 5.37 32.84c2.36 2.03 4.56 2.66 5.88 2.89 6.07 1.06 13-3 17.16-10.25l-4.38-29.97a49.229 49.229 0 0 1-10.03 3.41 49.672 49.672 0 0 1-14 1.08z" fill="#EAE7F0"/><path d="M436.68 752.42c.25 2.47.49 4.93.74 7.4.19 1.9 3.19 1.92 3 0-.25-2.47-.49-4.93-.74-7.4-.19-1.9-3.19-1.92-3 0zM445.71 751.401c.51 2.65 1.03 5.31 1.54 7.96.37 1.89 3.26 1.09 2.89-.8-.51-2.65-1.03-5.31-1.54-7.96-.36-1.89-3.26-1.09-2.89.8z" fill="#D2D6DF"/><path d="M403.81 774c-6.73 2.57-13.47 5.13-20.2 7.7-5.15-18.98-8.79-28.32-10.91-28.01-1.93.28-2.6 8.52-2.02 24.75-16.06 11.53-32.11 23.06-48.17 34.59 27.82-2.74 55.64-5.47 83.45-8.21-.71-10.28-1.43-20.55-2.15-30.82z" fill="#004B7F"/><path d="m344.9 796.95 10.48 7.96c16.74-1.76 33.49-3.52 50.23-5.27l.36 5.17c-28.5 2.81-57 5.62-85.5 8.42 8.14-5.42 16.28-10.85 24.43-16.28zM364.6 783.26c3.28 3.48 6.49 7.02 9.63 10.62 1.27 1.46 3.38-.67 2.12-2.12-3.14-3.61-6.35-7.15-9.63-10.62-1.33-1.4-3.45.72-2.12 2.12zM356.76 788.741c3.03 3.23 5.99 6.51 8.88 9.86 1.27 1.46 3.38-.67 2.12-2.12-2.9-3.34-5.86-6.63-8.88-9.86-1.32-1.41-3.44.71-2.12 2.12z" fill="#EAE7F0"/><path d="m431.82 771.58 15.45 11.1c8.23-16.27 14.01-23.97 17.35-23.1 2.64.68 3.75 6.72 3.33 18.12l29.76 51.81c-21.64-8.44-43.29-16.87-64.93-25.31l-.96-32.62z" fill="#004B7F"/><path d="M482.74 802.94c-5.05 3.62-10.1 7.25-15.15 10.87-11.72-4.76-23.45-9.51-35.17-14.27l.24 5.32c21.68 8.21 43.37 16.42 65.05 24.63-4.99-8.84-9.98-17.69-14.97-26.55zM468.87 782.379a377.9 377.9 0 0 0-12.17 7.9c-1.59 1.08-.09 3.68 1.51 2.59 4.01-2.71 8.07-5.34 12.17-7.9 1.64-1.01.14-3.61-1.51-2.59zM473.58 790.159c-3.75 2.45-7.45 4.96-11.1 7.55-1.56 1.11-.07 3.71 1.51 2.59 3.65-2.59 7.35-5.1 11.1-7.55 1.61-1.05.11-3.65-1.51-2.59z" fill="#EAE7F0"/><path d="M345.35 483.61c2.32 46.37 5.12 93.44 8.43 141.18 2.84 41.04 5.99 81.53 9.42 121.46 2.8 1.41 10.15 4.65 19.94 3.8 9.87-.86 16.52-5.38 19-7.26-4.66-39.33-8.61-80.38-11.63-123.05-3.08-43.47-4.95-85.39-5.86-125.64-3.1-2.59-9.23-7.04-18.3-9.48a49.754 49.754 0 0 0-21-1.01zM438.39 491.99c3.21 40.32 6.78 81.15 10.72 122.47 3.92 41.06 8.11 81.57 12.55 121.53a43.329 43.329 0 0 1-20.6 8.15 43.865 43.865 0 0 1-18.95-1.93c-4.94-43-9.49-86.86-13.58-131.57a5717.62 5717.62 0 0 1-9.34-114.71c13.07-1.31 26.14-2.63 39.2-3.94z" fill="#110D24"/><path d="M348 447.899c-.87 4.69-1.58 9.66-2.06 14.91-1.82 19.88.2 37.39 3.25 51.4 2.76 2.58 21.87 19.9 49.76 16.76 23.76-2.68 37.65-18.37 40.66-21.94-.48-9.56-1.38-19.88-2.85-30.83-1.42-10.53-3.2-20.36-5.17-29.41-27.86-.29-55.73-.59-83.59-.89z" fill="#110D24"/><path d="M459.25 541.51a253.6 253.6 0 0 0 3.94 13.55c-2.82 5.56-5.99 7.79-8.41 8.79-1.74.72-3.6 1.01-4.85 2.8-1.39 1.98-1.55 5.13-.31 6.06 2.27 1.69 9.04-4.16 9.89-4.9-1.09.9-3.7 3.3-4.42 7.14-.52 2.81-.15 7.03 1.69 7.55 1.61.45 3.66-2.11 4.16-2.77-.35.72-.83 2.01-.62 3.54.21 1.5 1.11 3.38 2 3.54 2.81.52 10.11-15.24 11.86-31.12.74-6.65 1-17.82-3.58-31.72-2.35-3.27-6.74-4.29-10.13-2.48-3.12 1.66-4.75 5.37-3.85 8.94.77 3.56 1.64 7.27 2.63 11.08z" fill="#AE4D47"/><path d="M457.9 519.58c-.83 4.85-4.48 4.89-6.78 9.45-3.42 6.78 2.75 10.48 1.64 21.98-.81 8.49-4.86 13.62-2.41 15.82 1.54 1.39 4.34.41 4.62.31 3.97-1.45 6.43-7.25 5.6-14.48.82-3.42 1.64-6.85 2.47-10.27.33.21 1.18.76 2.05 1.64 6.18 6.26 6.26 21.68-.26 32.66-2.22 3.73-5.53 7.51-4.16 10.63.47 1.06 1.69 2.53 3.41 2.95 0 0 1.67.4 3.66-.59 5.13-2.57 16.74-31.55 7.42-55.1-1.04-2.63-3.75-8.75-5.14-17.67-.81-5.23-.89-9.62-.82-12.53-.49-4.23-4.32-6.99-7.81-6.37-2.78.5-5.08 3.11-5.34 6.37.28 1.33 2.21 13.09 1.85 15.2z" fill="#FF897B"/><path d="M451.06 564.9c-.95-.9-.54-3.39 1.39-6.03.64-.07 1.45-.1 2.36 0 1.29.15 2.33.5 3.06.82-.06.42-.59 3.8-3.39 5.08-.11.05-2.42 1.08-3.42.13zM472.67 582.73c-.57-.2-2.17-.66-3.74.07-2.4 1.13-3.6 4.54-2.52 5.96.42.54 1.11.72 1.56.78.4-.3.81-.64 1.22-1.04 2.01-1.94 2.99-4.18 3.48-5.77z" fill="#EAC1BE"/><path d="M384.55 486.18c-1.51 14.92-.11 29.83 4.14 44.21.05.16.19.27.36.28l7.37.27c.22.01.45-.25.36-.47-5.65-13.89-6.55-29.01-2.58-43.46.07-.25-.12-.46-.36-.47-2.97-.24-5.94-.48-8.91-.71-.48-.04-.48.71 0 .75 1.51.12 5.95-.29 7.13.57 1.67 1.22.73 2.16.32 4.14-.71 3.39-1.17 6.83-1.35 10.29a66.44 66.44 0 0 0 3.4 24.75c.59 1.76 1.68 2.64.15 3.81-1.23-.04-2.46-.09-3.69-.13-1.48-.33-2.24-1.19-2.29-2.59-1.79-3.68-2.15-9.02-2.74-13.03-1.39-9.34-1.51-18.79-.56-28.18.05-.51-.7-.51-.75-.03z" fill="#38374C"/><path d="M393.54 277.18a601.34 601.34 0 0 0-35.14 94.19 602.348 602.348 0 0 0-19.96 108.83c11.48 4.08 26.88 8.28 45.39 9.98 21.83 2 40.28-.2 53.44-2.82.48-31.82-.96-68.51-6.16-108.86A764.095 764.095 0 0 0 411 277.09c-.49.52-4.05 4.18-9.53 3.83-4.5-.28-7.29-3.06-7.93-3.74z" fill="#444A84"/><path d="M400.15 317.09c-6.65 38.14-13.31 76.28-19.96 114.42" stroke="#EFE7E1" stroke-width="10" stroke-miterlimit="10"/><path d="M330.38 428.09c2.08.66 4.32 1.24 7.09 1.11 5.85-.27 8.69-5.23 12.31-8.36 11.51-9.96 33.31-7.43 35.43-2.06.5 1.28.01 3.03-.94 3.93-1.77 1.67-4.31-.37-10.62-.3-4.6.05-7.5.77-8.49 1.08-1.88.6-3.35 1.34-4.36 1.91-.48.48-.97.95-1.45 1.43 5.86.13 10.8.7 14.57 1.27 8.9 1.37 17.73 2.72 18.73 7.09.29 1.25-.08 2.7-.94 3.63-3.6 3.89-15.83-1.75-15.86-1.66-.03.09 13.63 2.98 14.02 7.84.14 1.76-1.5 3.15-1.58 3.22-3.84 3.18-10.67-2.21-22.55-4.24-4.71-.8-8.68-.82-11.33-.7l-.9 2.4c5.79 1.26 10.16 3.24 13.1 4.85 2.88 1.58 11.38 6.23 10.56 9.92-.31 1.39-1.82 2.11-2.07 2.23-2.22 1.02-4.81-.15-14.19-5.87-5.67-3.46-6.36-4.03-8.26-4.36-4.74-.83-5.73 1.82-10.78 1.94-9.09.22-16.26-8.12-17.78-9.89a29.808 29.808 0 0 1-3.21-4.54c-3.49-2.79-6.98-5.59-10.46-8.38 2.32-4.05 4.64-8.1 6.95-12.16 2.46 2.8 6.72 6.67 13.01 8.67z" fill="#FF897B"/><path d="M378.87 416.289c-.3.56-.71 1.47-.86 2.67-.11.94-.03 1.73.08 2.29 2.69 1.39 5.15 1.14 5.96-.07.6-.89.16-2.11.08-2.31-.63-1.67-2.73-2.74-5.26-2.58zM385.77 432.1c-.26.25-.99 1-1.22 2.23-.26 1.37.28 2.43.44 2.73 2.69 1.39 5.15 1.14 5.96-.07.6-.89.16-2.11.08-2.31-.63-1.66-2.73-2.73-5.26-2.58zM384.42 441.63c-.21.08-1.68.71-2.2 2.36-.44 1.4.11 2.58.23 2.82 2.22 1.81 4.84 1.73 5.9.5.74-.86.67-2.21.33-3.12-.58-1.55-2.28-2.61-4.26-2.56zM372.56 456.5c-.32.1-1.07.38-1.64 1.11-.97 1.23-.66 2.71-.61 2.92 1.6 1.64 3.78 1.83 4.91.87.66-.56.98-1.53.83-2.39-.24-1.38-1.67-2.52-3.49-2.51z" fill="#EAC1BE"/><path d="M394.26 274.06c.28.34 2.9 3.41 7.18 3.2 3.93-.2 6.16-3.01 6.48-3.42.66.38 2.14 1.37 3.08 3.26.58 1.16.74 2.23.78 2.93-.48.52-5.42 5.7-12.42 4.69-4.09-.59-6.74-2.99-7.71-3.97-.04-.75 0-2.03.53-3.48.6-1.61 1.53-2.67 2.08-3.21zM412.92 284.34a519.97 519.97 0 0 1 41.48 102 520.246 520.246 0 0 1 19.96 126.18c-3.31 1.09-8.25 2.3-14.33 2.28-5.32-.02-9.72-.97-12.83-1.9a1088.04 1088.04 0 0 0-10.69-106.46c-5.88-39.08-13.45-74.89-21.67-107.07l-1.92-15.03z" fill="#EFE7E1"/><path d="M392.65 279.08c-29.34 21.07-58.68 42.14-88.03 63.2-1.91.74-4.56 2.01-7.13 4.28-12.86 11.32-9 34.3-7.01 46.1 4.56 27.13 18.8 47.44 29.83 59.88 2.53-9.35 5.07-18.69 7.6-28.04-4.63-7.9-10.56-20.31-13.23-36.49a105.685 105.685 0 0 1-1.02-26.24c6.97-3.71 14.33-8.1 21.86-13.31 19.49-13.47 34.11-28.22 44.77-41.05 4.11-9.44 8.24-18.89 12.36-28.33z" fill="#EFE7E1"/><path d="M356.66 434.719c2.58-.52 5.72-.88 9.27-.71 9.84.46 17.13 4.68 20.8 7.21" stroke="#BF5C55" stroke-miterlimit="10"/><path d="M621.62 682.97c-2.76 29.35-5.52 58.7-8.29 88.05 1.57 8.51-4.75 15.52-10.87 15.6-5.6.07-11.62-5.67-11.5-13.47 3.41-27.87 6.81-55.75 10.22-83.62 6.82-2.19 13.63-4.38 20.44-6.56z" fill="#FC9692"/><path d="M617.49 746.05c-1.88 11.17-3.75 22.35-5.62 33.52-2.36 2.03-4.56 2.66-5.88 2.89-6.07 1.06-13-3-17.16-10.25l5.07-29.62a41.94 41.94 0 0 0 9.33 3.06c5.83 1.17 10.84.88 14.26.4z" fill="#EAE7F0"/><path d="M607.29 747.92c-.25 2.47-.49 4.93-.74 7.4-.19 1.92 2.81 1.91 3 0 .25-2.47.49-4.93.74-7.4.19-1.92-2.81-1.9-3 0zM598.37 746.1c-.51 2.65-1.03 5.31-1.54 7.96-.37 1.89 2.53 2.69 2.89.8.51-2.65 1.03-5.31 1.54-7.96.37-1.89-2.52-2.7-2.89-.8z" fill="#D2D6DF"/><path d="M566.19 678.79c-2.76 29.35-5.52 58.7-8.29 88.05 1.57 8.51-4.75 15.52-10.87 15.6-5.6.07-11.62-5.67-11.5-13.47 3.41-27.87 6.81-55.75 10.22-83.62 6.82-2.19 13.63-4.37 20.44-6.56z" fill="#FC9692"/><path d="m561.81 742.75-5.37 32.84c-2.36 2.03-4.56 2.66-5.88 2.89-6.07 1.06-13-3-17.16-10.25l4.38-29.97c2.64 1.23 6.01 2.51 10.03 3.41a49.672 49.672 0 0 0 14 1.08z" fill="#EAE7F0"/><path d="M551.86 743.939c-.25 2.47-.49 4.93-.74 7.4-.19 1.92 2.81 1.91 3 0 .25-2.47.49-4.93.74-7.4.2-1.92-2.81-1.9-3 0zM542.94 742.12c-.51 2.65-1.03 5.31-1.54 7.96-.36 1.89 2.53 2.69 2.89.8.51-2.65 1.03-5.31 1.54-7.96.37-1.89-2.52-2.7-2.89-.8z" fill="#D2D6DF"/><path d="M587.73 765.52c6.73 2.57 13.47 5.13 20.2 7.7 5.15-18.98 8.79-28.32 10.91-28.01 1.93.28 2.6 8.52 2.02 24.75 16.06 11.53 32.11 23.06 48.17 34.59-27.82-2.74-55.64-5.47-83.45-8.21.71-10.28 1.43-20.55 2.15-30.82z" fill="#004B7F"/><path d="m646.65 788.47-10.48 7.96c-16.74-1.76-33.49-3.52-50.23-5.27l-.36 5.17c28.5 2.81 57 5.62 85.5 8.42-8.14-5.42-16.29-10.85-24.43-16.28zM624.82 772.659c-3.28 3.48-6.49 7.02-9.63 10.62-1.26 1.45.85 3.58 2.12 2.12 3.14-3.61 6.35-7.15 9.63-10.62 1.33-1.4-.79-3.53-2.12-2.12z" fill="#EAE7F0"/><path d="M632.67 778.139c-3.03 3.23-5.99 6.51-8.88 9.86-1.26 1.45.85 3.58 2.12 2.12 2.9-3.34 5.86-6.63 8.88-9.86 1.32-1.41-.8-3.54-2.12-2.12z" fill="#EAE7F0"/><path d="m559.72 763.099-15.45 11.1c-8.23-16.27-14.01-23.97-17.35-23.1-2.64.68-3.75 6.72-3.33 18.12l-29.76 51.81c21.64-8.44 43.29-16.87 64.93-25.31.33-10.88.64-21.75.96-32.62z" fill="#004B7F"/><path d="M508.81 794.46c5.05 3.62 10.1 7.25 15.15 10.87 11.72-4.76 23.45-9.51 35.17-14.27l-.24 5.32c-21.68 8.21-43.37 16.42-65.05 24.63 4.99-8.84 9.98-17.7 14.97-26.55zM521.16 776.49a377.9 377.9 0 0 1 12.17 7.9c1.6 1.08 3.11-1.51 1.51-2.59-4.01-2.71-8.07-5.34-12.17-7.9-1.64-1.02-3.15 1.57-1.51 2.59zM516.45 784.27c3.75 2.44 7.45 4.96 11.1 7.55 1.58 1.12 3.08-1.48 1.51-2.59-3.65-2.59-7.35-5.1-11.1-7.55-1.62-1.06-3.12 1.54-1.51 2.59z" fill="#EAE7F0"/><path d="M646.19 475.13c-2.32 46.37-5.12 93.44-8.43 141.18-2.84 41.04-5.99 81.53-9.42 121.46-2.8 1.41-10.15 4.65-19.94 3.8-9.87-.86-16.52-5.38-19-7.26 4.66-39.33 8.61-80.38 11.63-123.05 3.08-43.47 4.95-85.39 5.86-125.64 3.1-2.59 9.23-7.04 18.3-9.48a49.756 49.756 0 0 1 21-1.01zM553.15 483.51c-3.21 40.32-6.78 81.15-10.72 122.47-3.92 41.06-8.11 81.57-12.55 121.53a43.329 43.329 0 0 0 20.6 8.15c8.52 1.01 15.35-.73 18.95-1.93 4.94-43 9.49-86.86 13.58-131.57 3.55-38.82 6.66-77.06 9.34-114.71-13.06-1.31-26.13-2.63-39.2-3.94z" fill="#110D24"/><path d="M643.54 439.42c.87 4.69 1.58 9.66 2.06 14.91 1.82 19.88-.2 37.39-3.25 51.4-4.65 3.39-21.7 14.96-46.06 13.59-24.46-1.37-40.14-14.89-44.36-18.78.48-9.56 1.38-19.88 2.85-30.83 1.42-10.53 3.2-20.36 5.17-29.41 27.87-.28 55.73-.58 83.59-.88z" fill="#110D24"/><path d="M608.67 475.59c.18 8.38-.36 16.74-1.77 25.01-.56 3.28-1.25 6.54-2.06 9.77-.71 2.82-1.21 4.15-4.49 4.18-2.11.02-2.64.31-2.42-1.87.32-3.14 2.04-6.53 2.72-9.65.72-3.3 1.23-6.64 1.55-10 .37-3.88.46-7.8.27-11.69-.03-.7-.58-3.57-.31-4.21.79-1.81 5.36-1.12 6.89-1.17.48-.02.48-.77 0-.75l-7.4.27c-.19.01-.4.17-.38.38 1.41 13.3-.28 26.59-4.98 39.11-.08.23.13.48.36.47l7.37-.27c.17-.01.32-.11.36-.28 3.62-12.82 5.31-25.99 5.03-39.31 0-.47-.75-.48-.74.01z" fill="#38374C"/><path d="M598.79 268.41a621.153 621.153 0 0 1 50.25 204.34 186.457 186.457 0 0 1-45.59 9.01 186.41 186.41 0 0 1-53.37-3.96c.25-31.93 2.5-68.56 8.47-108.71a780.815 780.815 0 0 1 21.73-100.19c.77.65 4.52 3.66 9.98 3.27 4.68-.33 7.68-2.95 8.53-3.76z" fill="#444A84"/><path d="M604.03 308.18c-.31 17.4-1.32 36.12-3.33 55.96a680.88 680.88 0 0 1-9.98 66.06" stroke="#EFE7E1" stroke-width="10" stroke-miterlimit="10"/><path d="M596.17 264.12c-.1 3.62-3.04 6.56-6.65 6.66-3.59.1-6.67-2.66-6.99-6.24-.77 1.54-1.54 3.09-2.31 4.63 1.38 3.88 4.96 6.51 8.94 6.6 4.4.1 8.43-2.93 9.63-7.35-.87-1.44-1.75-2.87-2.62-4.3z" fill="#EFE7E1"/><path d="M524.01 415.94c2.17.22 4.48.33 7.16-.36 5.67-1.46 7.44-6.89 10.35-10.69 9.24-12.09 31.1-14.07 34.26-9.24.76 1.15.63 2.97-.12 4.04-1.39 2-4.29.52-10.46 1.87-4.49.99-7.19 2.28-8.09 2.79-1.72.97-3.01 2-3.87 2.76-.38.56-.75 1.13-1.13 1.69 5.77-1.06 10.72-1.52 14.52-1.72 8.99-.48 17.91-.95 19.78 3.12.53 1.16.47 2.66-.18 3.74-2.73 4.54-15.85 1.51-15.86 1.6-.01.1 13.96.14 15.33 4.81.5 1.69-.83 3.39-.89 3.48-3.11 3.9-10.9.01-22.95.45-4.77.17-8.66.97-11.24 1.62l-.39 2.53c5.92.05 10.61 1.1 13.81 2.08 3.14.96 12.41 3.78 12.36 7.55-.02 1.42-1.36 2.44-1.58 2.6-1.97 1.45-4.74.83-15.09-2.85-6.26-2.23-7.05-2.65-8.97-2.58-4.81.16-5.24 2.95-10.16 4.1-8.86 2.07-17.57-4.63-19.43-6.06a29.476 29.476 0 0 1-4.07-3.79c-3.98-2.02-7.97-4.05-11.95-6.07 1.44-4.44 2.89-8.88 4.33-13.32 3 2.25 7.96 5.17 14.53 5.85z" fill="#FF897B"/><path d="M569.08 394.49c-.18.61-.4 1.58-.3 2.79.08.94.33 1.7.54 2.22 2.92.82 5.28.06 5.82-1.28.4-.99-.28-2.1-.39-2.28-.96-1.5-3.23-2.12-5.67-1.45zM579.06 408.57c-.21.29-.77 1.18-.74 2.43.03 1.39.77 2.32.99 2.58 2.92.82 5.28.06 5.82-1.28.4-.99-.28-2.1-.39-2.28-.97-1.5-3.24-2.12-5.68-1.45zM579.68 418.181c-.19.12-1.5 1.04-1.68 2.76-.15 1.46.63 2.5.8 2.72 2.55 1.32 5.09.71 5.88-.71.55-.99.2-2.3-.31-3.12-.89-1.42-2.76-2.11-4.69-1.65zM571.1 435.15c-.3.16-.97.59-1.38 1.43-.7 1.41-.09 2.79 0 2.99 1.9 1.28 4.07 1.02 4.98-.15.53-.68.65-1.69.33-2.51-.52-1.32-2.16-2.14-3.93-1.76z" fill="#EAC1BE"/><path d="M553.36 416.69c4.3-1.51 11.38-3.2 19.49-1.43 1.73.38 3.32.87 4.75 1.43" stroke="#BF5C55" stroke-miterlimit="10"/><path d="M658.9 419.059c-2.17.22-4.48.33-7.16-.36-5.67-1.46-7.44-6.89-10.35-10.69-9.24-12.09-31.1-14.07-34.26-9.24-.76 1.15-.63 2.97.12 4.04 1.39 2 4.29.52 10.46 1.87 4.49.99 7.19 2.28 8.09 2.79 1.72.97 3.01 2 3.87 2.76.38.56.75 1.13 1.13 1.69-5.77-1.06-10.72-1.52-14.52-1.72-8.99-.48-17.91-.95-19.78 3.12-.53 1.16-.47 2.66.18 3.74 2.73 4.54 15.85 1.51 15.86 1.6.01.1-13.96.14-15.33 4.81-.5 1.69.83 3.39.89 3.48 3.11 3.9 10.9.01 22.95.45 4.77.17 8.66.97 11.24 1.62l.39 2.53c-5.92.05-10.61 1.1-13.81 2.08-3.14.96-12.41 3.78-12.36 7.55.02 1.42 1.36 2.44 1.58 2.6 1.97 1.45 4.74.83 15.09-2.85 6.26-2.23 7.05-2.65 8.97-2.58 4.81.16 5.24 2.95 10.16 4.1 8.86 2.07 17.57-4.63 19.43-6.06 1.88-1.44 3.23-2.85 4.07-3.79 3.98-2.02 7.97-4.05 11.95-6.07-1.44-4.44-2.89-8.88-4.33-13.32-3 2.25-7.95 5.17-14.53 5.85z" fill="#FF897B"/><path d="M613.84 397.619c.18.61.4 1.58.3 2.79-.08.94-.33 1.7-.54 2.22-2.92.82-5.28.06-5.82-1.28-.4-.99.28-2.1.39-2.28.95-1.5 3.22-2.12 5.67-1.45zM603.86 411.699c.21.29.77 1.18.74 2.43-.03 1.39-.77 2.32-.99 2.58-2.92.82-5.28.06-5.82-1.28-.4-.99.28-2.1.39-2.28.96-1.5 3.23-2.12 5.68-1.45zM603.24 421.3c.19.12 1.5 1.04 1.68 2.76.15 1.46-.63 2.5-.8 2.72-2.55 1.32-5.09.71-5.88-.71-.55-.99-.2-2.3.31-3.12.88-1.41 2.76-2.1 4.69-1.65zM611.82 438.269c.3.16.97.59 1.38 1.43.7 1.41.09 2.79 0 2.99-1.9 1.28-4.07 1.02-4.98-.15-.53-.68-.65-1.69-.33-2.51.52-1.31 2.15-2.14 3.93-1.76z" fill="#EAC1BE"/><path d="M606.54 419.42c4.3-1.51 11.38-3.2 19.49-1.43 1.73.38 3.32.87 4.75 1.43" stroke="#BF5C55" stroke-miterlimit="10"/><path d="M598.79 268.41c22.33 13.51 45.16 28.16 68.32 44.05 8.99 6.17 17.78 12.35 26.38 18.53 3.61 9.32 8.37 25.36 7.14 45.44-1.92 31.1-17.04 52.56-23.53 60.78-4.04-7.49-8.08-14.97-12.12-22.46 3.67-8.08 7.92-19.71 9.98-34.22 2.18-15.38 1.1-28.39-.36-37.43a418.1 418.1 0 0 1-27.45-17.47 418.485 418.485 0 0 1-36.69-28.54c-3.88-9.55-7.78-19.11-11.67-28.68zM580.29 268.91a2638.725 2638.725 0 0 0-87.67 65.61c-4.05 7.34-10.19 20.99-10.34 38.79-.28 33.78 21.25 56.14 26.06 60.91 4.3-8.9 8.61-17.79 12.91-26.69-3.04-2.96-13.37-13.74-15.21-31.13-1.54-14.64 3.81-25.68 6.02-29.72 11.78-9.48 23.55-18.99 35.29-28.51 8.44-6.85 16.88-13.71 25.3-20.59 2.55-9.56 5.1-19.11 7.64-28.67z" fill="#EFE7E1"/><path d="M420.38 491.35c.69 9.67 6.37 18.04 15.12 22.21.43.21.81-.44.38-.65-8.49-4.05-14.08-12.16-14.75-21.57-.04-.47-.79-.47-.75.01zM352.67 486.28c1.76 9.15.01 18.37-4.95 26.27-.26.41.39.79.65.38 5.07-8.07 6.83-17.48 5.03-26.84-.1-.48-.82-.28-.73.19zM565.74 479.019c2.74 9.32-.58 19.14-8.58 24.67-.39.27-.02.92.38.65 8.31-5.75 11.77-15.84 8.92-25.52-.13-.46-.85-.26-.72.2z" fill="#38374C"/><path d="M164.7 309.77c1.73-3.21 7.67-.36 18.72-.39 13.93-.04 20.56-4.82 22.81-1.27 2.2 3.46-2.64 10.73-3.23 11.59-5.07 7.47-13.18 8.6-15.6 8.81-7.1.62-15.24-2.34-19.84-9.15-.87-1.28-4.47-6.61-2.86-9.59z" fill="#2D101F"/><mask id="q" style="mask-type:luminance" maskUnits="userSpaceOnUse" x="164" y="306" width="43" height="23"><path d="M164.7 309.77c1.73-3.21 7.67-.36 18.72-.39 13.93-.04 20.56-4.82 22.81-1.27 2.2 3.46-2.64 10.73-3.23 11.59-5.07 7.47-13.18 8.6-15.6 8.81-7.1.62-15.24-2.34-19.84-9.15-.87-1.28-4.47-6.61-2.86-9.59z" fill="#fff"/></mask><g mask="url(#q)"><path d="M181.41 321.22c2.08-3.28 5.66-4.18 8.18-4.83 3.76-.97 6.34-.48 7.07-.32 1.46.31 4.96 1.14 5.15 2.62.48 3.64-19.18 11.06-21.66 7.42-.95-1.41.84-4.23 1.26-4.89z" fill="#73354A"/></g><mask id="r" style="mask-type:luminance" maskUnits="userSpaceOnUse" x="164" y="306" width="43" height="23"><path d="M164.7 309.77c1.73-3.21 7.67-.36 18.72-.39 13.93-.04 20.56-4.82 22.81-1.27 2.2 3.46-2.64 10.73-3.23 11.59-5.07 7.47-13.18 8.6-15.6 8.81-7.1.62-15.24-2.34-19.84-9.15-.87-1.28-4.47-6.61-2.86-9.59z" fill="#fff"/></mask><g mask="url(#r)"><path d="M159.52 315.799c4.25 10.63 19.94 11.98 22.33 12.19 10.48.91 25.82-2.8 29.15-13.69 1.7-5.54-.34-10.86-1.65-13.57-5.51 2.09-14.44 4.7-25.81 4.79-9.67.08-17.64-1.69-23.02-3.31-1.01 2.1-3.34 7.74-1 13.59z" fill="#DBF1FF"/></g><path d="M164.7 309.77c1.73-3.21 7.67-.36 18.72-.39 13.93-.04 20.56-4.82 22.81-1.27 2.2 3.46-2.64 10.73-3.23 11.59-5.07 7.47-13.18 8.6-15.6 8.81-7.1.62-15.24-2.34-19.84-9.15-.87-1.28-4.47-6.61-2.86-9.59z" stroke="#A94148" stroke-miterlimit="10"/><path d="M141.5 287.5c2.39-1.39 5.04-2.36 7.79-2.9 1.38-.26 2.78-.4 4.19-.44 1.41-.01 2.83.07 4.23.28 1.4.22 2.8.51 4.16.93 1.36.43 2.68 1.02 3.89 1.76 2.43 1.49 4.57 3.46 6.07 5.84l-.15.14c-2.28-1.6-4.52-3.06-6.9-4.23-2.37-1.15-4.77-2.3-7.38-2.87-1.3-.29-2.62-.46-3.96-.55-1.34-.06-2.68-.02-4.02.13-2.69.26-5.34 1-7.85 2.09l-.07-.18zM225.25 288.52c-2.46-1.41-5.09-2.52-7.81-3.09-2.71-.61-5.52-.67-8.19-.09-2.67.57-5.16 1.88-7.63 3.03-2.48 1.21-4.81 2.69-7.2 4.3l-.14-.14c1.63-2.41 3.87-4.39 6.39-5.91 2.54-1.51 5.37-2.4 8.31-2.85 2.94-.43 5.94-.14 8.72.7 2.78.86 5.37 2.2 7.67 3.89l-.12.16z" fill="#0A080A"/><path d="M165.54 313.74a50.411 50.411 0 0 0 18.77 3.95c9.67.14 17.16-2.55 21.24-4.37M175.05 312.64l-.18 7.66M187.93 314.42l-.09 6.77M198.14 312.17l-.18 7.66" stroke="#A0B6C1" stroke-miterlimit="10"/><path d="M170.06 338.78c1.6 9.02 3.21 18.04 4.81 27.06 2.92.85 9.77 2.49 18.16 1.16 5.32-.84 9.25-2.56 11.6-3.8-1.17-9.19-2.33-18.37-3.5-27.56-2.39 1.33-6.59 3.3-12.41 4.25-8.65 1.42-15.72-.26-18.66-1.11z" fill="#F8A08A"/><mask id="s" style="mask-type:luminance" maskUnits="userSpaceOnUse" x="170" y="335" width="35" height="33"><path d="M170.06 338.78c1.6 9.02 3.21 18.04 4.81 27.06 2.92.85 9.77 2.49 18.16 1.16 5.32-.84 9.25-2.56 11.6-3.8-1.17-9.19-2.33-18.37-3.5-27.56-2.39 1.33-6.59 3.3-12.41 4.25-8.65 1.42-15.72-.26-18.66-1.11z" fill="#fff"/></mask><g mask="url(#s)"><path d="M165.68 333.66c1.82 6.49 3.65 12.98 5.47 19.47 1.19.69 9.03 5.13 19.67 3.6 9.8-1.41 14.85-6.86 15.78-7.89l-3.06-20.63c-4.24-.56-10.57-1-18.08-.08-9.04 1.11-15.8 3.7-19.78 5.53z" fill="#792837"/></g><path d="M244.55 285.05c2.79-1.96 7.3-2.13 10.73 0 4.97 3.1 4.78 9.26 4.77 9.54-.37 7.62-9.56 13.76-14.31 11.92-5.69-2.21-7.66-16.91-1.19-21.46zM123.69 287.43c-2.79-1.96-7.3-2.13-10.73 0-4.97 3.1-4.78 9.26-4.77 9.54.37 7.62 9.56 13.76 14.31 11.92 5.69-2.21 7.65-16.91 1.19-21.46z" fill="#ED7D6F"/><path d="M134.87 264.78c-6.44 10.15-8.78 19.319-9.54 22.649-2.13 9.36-4.64 20.421 0 30.991 10.97 25.02 52.64 26.169 56.03 26.229 1.04.02 43.73-.52 57.22-19.07 9.87-13.58 6.4-31.12 4.77-39.34-1.15-5.8-5.07-24.159-21.46-36.959-23.11-18.05-57.09-14.19-73.91 0-6.91 5.85-12.79 15.01-13.11 15.5z" fill="#F8A08A"/><mask id="t" style="mask-type:luminance" maskUnits="userSpaceOnUse" x="122" y="237" width="124" height="108"><path d="M134.87 264.78c-6.44 10.15-8.78 19.319-9.54 22.649-2.13 9.36-4.64 20.421 0 30.991 10.97 25.02 52.64 26.169 56.03 26.229 1.04.02 43.73-.52 57.22-19.07 9.87-13.58 6.4-31.12 4.77-39.34-1.15-5.8-5.07-24.159-21.46-36.959-23.11-18.05-57.09-14.19-73.91 0-6.91 5.85-12.79 15.01-13.11 15.5z" fill="#fff"/></mask><g mask="url(#t)"><path d="M242.76 314.25c-.82 1.96-5.24 12.42-15.5 16.69-17.85 7.42-42.16-8.56-41.72-19.07.29-6.92 11.32-12.25 13.11-13.11 6.49-3.13 12.53-3.01 25.77-8.88.09-.04.16-.07.2-.09.51-.76 3.82-5.52 8.7-5.53 6.4-.02 9.93 8.11 10.63 9.74 3.71 8.55.11 17.16-1.19 20.25z" fill="url(#u)"/></g><mask id="v" style="mask-type:luminance" maskUnits="userSpaceOnUse" x="122" y="237" width="124" height="108"><path d="M134.87 264.78c-6.44 10.15-8.78 19.319-9.54 22.649-2.13 9.36-4.64 20.421 0 30.991 10.97 25.02 52.64 26.169 56.03 26.229 1.04.02 43.73-.52 57.22-19.07 9.87-13.58 6.4-31.12 4.77-39.34-1.15-5.8-5.07-24.159-21.46-36.959-23.11-18.05-57.09-14.19-73.91 0-6.91 5.85-12.79 15.01-13.11 15.5z" fill="#fff"/></mask><g mask="url(#v)"><path d="M122.87 313.06c1.3 3.09 5.49 13.04 15.5 16.69 13.26 4.84 31.57-3.26 34.06-15.5 1.11-5.47-.71-12.87-5.45-16.69-5-4.04-11.14-2.4-25.77-8.88-.09-.04-.16-.07-.2-.09-.51-.76-3.82-5.52-8.7-5.53-6.4-.02-9.93 8.11-10.63 9.74-3.71 8.56-.1 17.17 1.19 20.26z" fill="url(#w)"/></g><path d="M192.1 298.16c-1.43-2.64 5.99-11.27 15.5-14.31 9.12-2.91 19.83-.57 20.27 2.38.55 3.71-14.98 8.62-17.88 9.54-4.77 1.51-16.38 5.19-17.89 2.39z" fill="#fff"/><mask id="x" style="mask-type:luminance" maskUnits="userSpaceOnUse" x="191" y="282" width="37" height="18"><path d="M192.1 298.16c-1.43-2.64 5.99-11.27 15.5-14.31 9.12-2.91 19.83-.57 20.27 2.38.55 3.71-14.98 8.62-17.88 9.54-4.77 1.51-16.38 5.19-17.89 2.39z" fill="#fff"/></mask><g mask="url(#x)"><path d="M211.17 299.949c5.594 0 10.13-4.271 10.13-9.54 0-5.269-4.536-9.54-10.13-9.54-5.595 0-10.13 4.271-10.13 9.54 0 5.269 4.535 9.54 10.13 9.54z" fill="#492626"/></g><path d="M192.1 298.16c-1.43-2.64 5.99-11.27 15.5-14.31 9.12-2.91 19.83-.57 20.27 2.38.55 3.71-14.98 8.62-17.88 9.54-4.77 1.51-16.38 5.19-17.89 2.39z" stroke="#0A080A" stroke-miterlimit="10"/><path d="M170.78 297.36c1.31-2.7-6.49-10.99-16.12-13.6-9.24-2.5-19.83.31-20.14 3.29-.38 3.73 15.35 7.94 18.29 8.73 4.82 1.29 16.58 4.44 17.97 1.58z" fill="#fff"/><mask id="y" style="mask-type:luminance" maskUnits="userSpaceOnUse" x="134" y="282" width="37" height="17"><path d="M170.78 297.36c1.31-2.7-6.49-10.99-16.12-13.6-9.24-2.5-19.83.31-20.14 3.29-.38 3.73 15.35 7.94 18.29 8.73 4.82 1.29 16.58 4.44 17.97 1.58z" fill="#fff"/></mask><g mask="url(#y)"><path d="M151.56 301.149c5.595 0 10.13-4.271 10.13-9.54 0-5.268-4.535-9.54-10.13-9.54-5.595 0-10.13 4.272-10.13 9.54 0 5.269 4.535 9.54 10.13 9.54z" fill="#492626"/></g><path d="M170.78 297.36c1.31-2.7-6.49-10.99-16.12-13.6-9.24-2.5-19.83.31-20.14 3.29-.38 3.73 15.35 7.94 18.29 8.73 4.82 1.29 16.58 4.44 17.97 1.58z" stroke="#0A080A" stroke-miterlimit="10"/><path d="M180.25 292.18c.84 1.25 1.44 2.58 1.94 3.95.26.69.44 1.36.59 2.21.03.23.05.48.01.83-.04.36-.21.77-.37.99-.31.54-.85.97-1.3 1.2-.94.41-1.58.5-1.89.67-.16.07-.26.12-.37.26-.1.13-.21.32-.29.53-.12.42-.15.86.12 1.31.25.47.8.86 1.49 1.12v.15c-.72.03-1.47-.19-2.03-.68-.56-.49-.83-1.27-.76-2 .06-.73.43-1.47 1.08-1.87.64-.4 1.37-.51 1.97-.82.61-.29 1.05-.87.93-1.57-.06-.69-.21-1.39-.34-2.08l-.93-4.15.15-.05z" fill="#A94148"/><path d="M159.91 304.699c-1.11-.11-2.08.4-2.38 1.19-.19.48-.08.95 0 1.19M162.29 310.08c4.6 1.26 10.7 2.41 17.88 2.38 12.15-.04 21.71-3.4 27.42-5.96M207.21 303.12c.58.37 1.58 1.11 2.38 2.38a7.741 7.741 0 0 1 1.19 3.58" stroke="#A94148" stroke-miterlimit="10"/><path d="M158.72 279.289c.35-.11 1.3-.37 2.38 0 1.69.57 2.3 2.16 2.38 2.38M196.86 279.82a5.43 5.43 0 0 1 2.38-1.19c1.04-.23 1.91-.11 2.38 0" stroke="#632F53" stroke-miterlimit="10"/><path d="M150.37 274.32c-.66-.52-1.29-1.45-1.19-2.38.23-2.14 4.26-3.44 7.15-3.58 3.59-.17 8.08 1.34 8.34 3.58.11.94-.53 1.88-1.19 2.38-1.37 1.04-2.7.08-5.96 0-4-.1-5.55 1.24-7.15 0zM206.4 271.94c.66-.52 1.29-1.45 1.19-2.38-.23-2.14-4.26-3.44-7.15-3.58-3.59-.17-8.08 1.34-8.34 3.58-.11.94.53 1.88 1.19 2.38 1.37 1.04 2.7.08 5.96 0 4-.11 5.56 1.24 7.15 0z" fill="#0D141E"/><path d="M124.74 290.41c-.36-3-.63-7.25-.12-12.28 1.51-15.05 8.95-27.04 15.02-33.61 24.68-26.71 73.8-14.9 87.62-1.79 1.11 1.05 5.98 6.4 10.73 14.31 2.49 4.14 4.62 7.87 5.96 13.11.92 3.61 2.06 10.33 0 19.07-.59-2.28-1.54-5.42-3.11-8.99-7.34-16.66-27.63-41.3-58.29-40.49-27.45.73-46.84 21.42-54.24 38.74-2 4.72-3.02 8.92-3.57 11.93z" fill="#0D141E"/><path d="M167.06 223.06c-1.04-1.07-11.03-11.07-22.65-8.34-1.21.28-10.78 2.53-11.92 9.54-.77 4.74 2.8 8.71 3.58 9.54-1.96-.65-4.85-1.33-8.34-1.19-1.81.07-11.97.48-15.5 7.15-3.68 6.94 1.31 17.89 9.54 21.46 5.75 2.49 11.38.64 13.11 0 .6.71 5.41 6.22 13.11 5.96 6.05-.2 11.57-3.9 14.31-9.54 1.31 4.04 3.45 6.13 4.77 7.15 6.82 5.28 17.63 2.14 23.84-2.38 3.91-2.85 6.08-6.32 7.15-8.34.19.39 2.7 5.23 8.34 5.96 5.6.73 9.24-3.24 9.54-3.58-.11.57-.2 1.42 0 2.38 1.16 5.51 10.9 9.97 17.88 7.15 2.15-.87 3.7-2.29 4.77-3.58 1.59.48 3.25.61 4.77 0 5.7-2.3 8.06-14.5 3.58-22.65-3.78-6.87-12.34-10.67-21.46-9.54-.2-1.69-.99-6.29-4.77-9.54-5.04-4.34-13.33-4.5-20.27 0-1.28-1.46-5.8-6.25-13.11-7.15-7.68-.94-15.45 2.77-20.27 9.54z" fill="#20304A"/><path d="m139.81 698.92 3.96 88.73c-2.92 8.29 5.3 16.04 13.84 16.86 7.82.75 16.72-4.24 17.22-12.02-2.35-28.18-4.7-56.36-7.04-84.55-9.33-3.01-18.65-6.02-27.98-9.02z" fill="#FC9692"/><path d="M140.12 762.26c1.65 11.36 3.31 22.72 4.96 34.08 3.11 2.31 6.14 3.21 7.96 3.6 8.39 1.79 18.42-1.41 24.86-8.13-1.51-10.04-3.01-20.08-4.52-30.13-3.48.82-7.97 1.61-13.3 1.91-8.25.47-15.21-.43-19.96-1.33z" fill="#EAE7F0"/><path d="m150.62 765.19.39 7.46c.1 1.92 3.1 1.93 3 0l-.39-7.46c-.1-1.92-3.1-1.94-3 0zM163.33 765.259c.49 2.71.98 5.41 1.46 8.12.34 1.9 3.23 1.09 2.89-.8-.49-2.71-.98-5.41-1.46-8.12-.34-1.9-3.23-1.1-2.89.8z" fill="#D2D6DF"/><path d="m230.41 701.92 7.05 84.75c-2.92 8.29 5.3 16.04 13.84 16.86 7.82.75 16.72-4.24 17.22-12.02-2.35-28.18-4.7-56.36-7.04-84.55l-31.07-5.04z" fill="#FC9692"/><path d="M233.81 758.29c1.65 11.36 3.31 22.72 4.96 34.08 3.11 2.31 6.14 3.21 7.96 3.6 8.39 1.79 18.42-1.41 24.86-8.13-1.51-10.04-3.01-20.08-4.52-30.13-3.48.82-7.97 1.61-13.3 1.91-8.25.47-15.22-.42-19.96-1.33z" fill="#EAE7F0"/><path d="m244.31 761.22.39 7.46c.1 1.92 3.1 1.93 3 0l-.39-7.46c-.11-1.92-3.11-1.93-3 0zM257.02 761.29c.49 2.71.98 5.41 1.46 8.12.34 1.9 3.23 1.09 2.89-.8-.49-2.71-.98-5.41-1.46-8.12-.34-1.9-3.23-1.09-2.89.8z" fill="#D2D6DF"/><path d="M177.1 776.63c-7.87 1.51-15.74 3.03-23.61 4.54-8.92-15.62-14.27-23.05-16.04-22.28-1.57.68-.33 7.81 3.72 21.37L89.2 815.64l88.52-8.97c-.22-10.01-.42-20.03-.62-30.04z" fill="#9F7800"/><path d="M113.83 798.87c3.78 2.89 7.57 5.78 11.35 8.66 17.53-1.7 35.07-3.41 52.6-5.11l.03 5.03c-30.29 2.8-60.57 5.6-90.86 8.41 8.96-5.67 17.92-11.33 26.88-16.99zM135.38 785.881c3.58 3.47 7.1 7.01 10.54 10.62 1.33 1.4 3.45-.72 2.12-2.12-3.44-3.61-6.96-7.15-10.54-10.62-1.38-1.35-3.51.77-2.12 2.12z" fill="#EAE7F0"/><path d="M126.8 791.35c3.31 3.22 6.55 6.51 9.73 9.86 1.33 1.4 3.45-.72 2.12-2.12-3.18-3.35-6.42-6.64-9.73-9.86-1.39-1.35-3.51.77-2.12 2.12z" fill="#EAE7F0"/><path d="M234.39 768.52c5.77 3.58 11.54 7.15 17.31 10.73 8.23-16.27 14.01-23.97 17.35-23.1 2.64.68 3.75 6.72 3.33 18.12l29.76 51.81c-22.14-8.7-44.27-17.4-66.41-26.1-.45-10.49-.89-20.98-1.34-31.46z" fill="#9F7800"/><path d="M287.17 799.52c-5.05 3.62-10.1 7.25-15.15 10.87-12.15-4.81-24.31-9.62-36.46-14.44-.06 1.73-.12 3.45-.19 5.18 22.26 8.31 44.51 16.63 66.77 24.94l-14.97-26.55zM273.3 778.961a377.9 377.9 0 0 0-12.17 7.9c-1.59 1.08-.09 3.68 1.51 2.59 4.01-2.71 8.07-5.34 12.17-7.9 1.64-1.02.14-3.62-1.51-2.59zM278.01 786.73c-3.75 2.45-7.45 4.96-11.1 7.55-1.56 1.11-.07 3.71 1.51 2.59 3.65-2.59 7.35-5.1 11.1-7.55 1.62-1.05.11-3.65-1.51-2.59z" fill="#EAE7F0"/><path d="M104.52 551.49c.2 13.25.73 30.49 2.09 50.63.97 14.41 2.23 32.99 5.47 56.32 2.59 18.66 6.63 42.01 13.18 68.7 4.51 2.37 13.73 6.48 26.26 7.02 14.2.61 24.88-3.7 29.54-5.91 2.04-26.94 3.16-56.25 2.77-87.63-.41-33.23-2.44-64.13-5.41-92.34l-73.9 3.21z" fill="#324F79"/><path d="M121.19 722.5c2.17 6.86 4.35 13.71 6.52 20.57 8.17 1.54 17.86 2.83 28.81 3.26 12.76.5 24-.28 33.24-1.48-1.09-6.15-2.19-12.31-3.28-18.46-21.77-1.3-43.53-2.6-65.29-3.89z" fill="#496EA5"/><path d="M262.57 544.609c2.99 38.58 5.29 65.2 7.19 85.03.3 3.1 2.51 26.23 3.25 48.68.21 6.39.33 13.14.34 20.36.01 7.23-.1 14.25-.31 21.06-2.38 1.21-17.45 6.26-22.98 7.02-4.88.67-16.25 1.47-31.36 1.48a880.305 880.305 0 0 1-28.87-176.6c24.25-2.34 48.5-4.68 72.74-7.03z" fill="#324F79"/><path d="m280.14 710.529-3.24 21.19c-7.84 2.56-17.24 5.06-28.01 6.88-12.55 2.11-23.8 2.76-33.14 2.74l.36-18.7c21.35-4.04 42.69-8.08 64.03-12.11z" fill="#496EA5"/><path d="M104.52 551.49a301.76 301.76 0 0 0 78.2 7.23c33.56-1.29 60.93-7.94 79.86-14l-4.41-44.21c-50.23.72-100.46 1.43-150.69 2.15-.98 16.27-1.97 32.55-2.96 48.83z" fill="#324F79"/><mask id="z" style="mask-type:luminance" maskUnits="userSpaceOnUse" x="104" y="500" width="159" height="59"><path d="M104.52 551.49a301.76 301.76 0 0 0 78.2 7.23c33.56-1.29 60.93-7.94 79.86-14l-4.41-44.21c-50.23.72-100.46 1.43-150.69 2.15-.98 16.27-1.97 32.55-2.96 48.83z" fill="#fff"/></mask><g mask="url(#z)"><path d="M171.86 501.74c.84 19.06 1.68 38.12 2.51 57.19-4.32-.26-8.63-.53-12.95-.79" stroke="#1F3249" stroke-miterlimit="10"/></g><mask id="A" style="mask-type:luminance" maskUnits="userSpaceOnUse" x="104" y="500" width="159" height="59"><path d="M104.52 551.49a301.76 301.76 0 0 0 78.2 7.23c33.56-1.29 60.93-7.94 79.86-14l-4.41-44.21c-50.23.72-100.46 1.43-150.69 2.15-.98 16.27-1.97 32.55-2.96 48.83z" fill="#fff"/></mask><g mask="url(#A)"><path d="m185.03 501.55 2.49 56.65" stroke="#1F3249" stroke-miterlimit="10"/></g><mask id="B" style="mask-type:luminance" maskUnits="userSpaceOnUse" x="104" y="500" width="159" height="59"><path d="M104.52 551.49a301.76 301.76 0 0 0 78.2 7.23c33.56-1.29 60.93-7.94 79.86-14l-4.41-44.21c-50.23.72-100.46 1.43-150.69 2.15-.98 16.27-1.97 32.55-2.96 48.83z" fill="#fff"/></mask><g mask="url(#B)"><path d="m186.87 501.52 2.82 56.03c4.29-.36 8.58-.71 12.87-1.07" stroke="#1F3249" stroke-miterlimit="10"/></g><mask id="C" style="mask-type:luminance" maskUnits="userSpaceOnUse" x="104" y="500" width="159" height="59"><path d="M104.52 551.49a301.76 301.76 0 0 0 78.2 7.23c33.56-1.29 60.93-7.94 79.86-14l-4.41-44.21c-50.23.72-100.46 1.43-150.69 2.15-.98 16.27-1.97 32.55-2.96 48.83z" fill="#fff"/></mask><g mask="url(#C)"><path d="M133.99 502.28c.56 5.04 1.13 10.08 1.69 15.13l6.89-.78c.5-4.83.99-9.66 1.49-14.49-3.36.04-6.72.09-10.07.14z" stroke="#1F3249" stroke-miterlimit="10"/></g><mask id="D" style="mask-type:luminance" maskUnits="userSpaceOnUse" x="104" y="500" width="159" height="59"><path d="M104.52 551.49a301.76 301.76 0 0 0 78.2 7.23c33.56-1.29 60.93-7.94 79.86-14l-4.41-44.21c-50.23.72-100.46 1.43-150.69 2.15-.98 16.27-1.97 32.55-2.96 48.83z" fill="#fff"/></mask><g mask="url(#D)"><path d="M220.28 500.7c.56 5.04 1.13 10.08 1.69 15.13l6.89-.78c.5-4.83.99-9.66 1.49-14.49-3.35.04-6.71.09-10.07.14z" stroke="#1F3249" stroke-miterlimit="10"/></g><mask id="E" style="mask-type:luminance" maskUnits="userSpaceOnUse" x="104" y="500" width="159" height="59"><path d="M104.52 551.49a301.76 301.76 0 0 0 78.2 7.23c33.56-1.29 60.93-7.94 79.86-14l-4.41-44.21c-50.23.72-100.46 1.43-150.69 2.15-.98 16.27-1.97 32.55-2.96 48.83z" fill="#fff"/></mask><g mask="url(#E)"><path d="M128.31 509.3c-.74 3.64-2.76 10.75-8.9 17.58-4.2 4.67-8.79 7.49-11.92 9.08" stroke="#1F3249" stroke-miterlimit="10"/></g><mask id="F" style="mask-type:luminance" maskUnits="userSpaceOnUse" x="104" y="500" width="159" height="59"><path d="M104.52 551.49a301.76 301.76 0 0 0 78.2 7.23c33.56-1.29 60.93-7.94 79.86-14l-4.41-44.21c-50.23.72-100.46 1.43-150.69 2.15-.98 16.27-1.97 32.55-2.96 48.83z" fill="#fff"/></mask><g mask="url(#F)"><path d="M234.77 510.17c.74 3.64 2.76 10.75 8.9 17.58 4.2 4.67 8.79 7.49 11.92 9.08" stroke="#1F3249" stroke-miterlimit="10"/></g><path d="M309.24 338.15c6.28-19.18-3.18-40.43-22.1-82.93a525.394 525.394 0 0 0-16.04-32.91 43.24 43.24 0 0 0 4.03-10.67c.77-3.32 1.05-6.3 1.11-8.75 1.62-3.35 13.4-28.16 6.09-34.4-.24-.2-1.88-1.61-3.74-1.25-6.33 1.21-7.03 21.11-7.13 24.77-.33-.2-.65-.41-.98-.61a263.16 263.16 0 0 0 3.83-18.46c.95-5.58 1.34-8.9-.71-10.87-1.55-1.49-4.28-2-6.24-1.07-2.42 1.15-3.1 4.24-4.08 11.73-.57 4.35-1.23 10.19-1.74 17.2l-.48-.12c.65-2.86 1.54-7.48 1.96-13.25.57-7.83 1.23-17.03-2.73-18.89-1.9-.89-4.74-.05-6.42 1.54-3.71 3.52-.69 9.62-1.93 22.63-.25 2.65-.61 4.84-.89 6.33-.72.21-1.45.42-2.17.62.08-3.49-.03-8.08-.71-13.43-1.04-8.07-1.73-12.99-5.1-14.42-2.14-.91-5.31-.4-6.9 1.47-2.75 3.23.96 8.47 2.02 18.06.62 5.63.06 10.31-.48 13.31-1.19.69-2.38 1.38-3.56 2.07-.36-1.42-.96-3.38-2-5.6-1.17-2.47-2.43-5.15-4.65-6.93-4.42-3.55-12.29-3.27-13.6-.59-.98 2.01 2.46 3.92 6.19 11.62 2.59 5.34 2.28 6.67 4.15 11.19 1.42 3.45 4.2 8.08 10.16 12.83a631.65 631.65 0 0 1 13.78 44.44c3.21 11.88 11.25 35.13 10.91 47.57-.06 2.19-.4 5.15-2.05 8.12-1.97 3.55-12.23 13.2-21.92 22.48-10.67 10.22-12.69 8.13-15.33 12.83-6.52 11.63-2.06 31.96 9.62 38.14 11.59 6.14 26.7-4.21 42.42-14.97 17.88-12.23 31.83-21.78 37.41-38.83z" fill="#F8A08A"/><path d="M168.73 353.359c3.03 6.98 10.19 11.55 18.05 11.53 8.13-.02 15.46-4.95 18.26-12.31 3.92-3.27 8.06-6.56 12.42-9.82a307.94 307.94 0 0 1 37.94-24.32c3.4 8.96 7.71 18.86 13.21 29.31 5.12 9.72 10.41 18.31 15.5 25.78-3.66 3.64-8.07 7.55-13.31 11.41-7.53 5.55-14.75 9.51-20.91 12.36l-10.34 2.85a290.518 290.518 0 0 1 16.04 51.33c5.98 28.04 6.92 52.8 6.18 72a389.955 389.955 0 0 1-74.06 6.44c-33.33-.29-61.97-4.82-84.43-10.01.18-16.77 2.03-40.06 9.44-66.72 8.66-31.17 21.76-55.53 22.36-55.28.28.12-2.55 8.02-17.42 45.02-5.78-1.02-17.69-3.95-28.87-13.54-7.2-6.17-11.48-12.87-13.9-17.47 10.85-11.99 27.67-27.73 51.5-40.99 15.64-8.71 30.3-14.12 42.34-17.57z" fill="#BA2B2D"/><path d="M196.98 393.22h27.45c3.83 29.07 7.67 58.13 11.5 87.2-11.19.45-22.38.91-33.57 1.36M177.06 393.12h-27.45c-3.83 29.07-7.67 58.13-11.5 87.2 11.19.45 22.38.91 33.57 1.36" stroke="#EFE7E1" stroke-width="10" stroke-miterlimit="10"/><path d="M68.42 427.27c-3.25 4.37-21.19 29.2-11.71 49.39.5 1.07 1.84 3.74 4.99 7.37 14.58 16.8 38.55 20.29 50.92 21.12 3.01 1.04 6.53 2.25 10.73 3.7 1.71.59 3.28 1.13 5.45 1.79 2.35.72 4.28 1.32 6.26 1.76 5.67 1.27 9.62 2.16 11.49-.03 1.37-1.62 1.35-4.6.21-6.43-1.17-1.87-3.28-2.18-6.2-2.75-2.93-.58-7.14-1.52-12.37-3.1-.03-.1-.1-.72-.09-.85 1.64.47 3.34.93 5.09 1.37 2.54.64 3.83.89 5.4 1.25 8.25 1.88 8.59 3.15 11.59 2.76.55-.07 6.03-.85 6.61-4.15.36-2.07-1.3-4.59-4.1-6.12-2.06-.8-4.9-1.75-8.36-2.5-7.7-1.66-14.46-1.41-14.47-1.2-.01.08 1.01.15 5.08.74 0 0 4.17.6 8.69 1.36 11.86 1.99 14.24 3.78 16.35 1.92 1.65-1.46 2.39-4.5 1.62-6.75-1.47-4.24-8.27-5.42-21.74-7.59-2.1-.34-3.87-.58-5.17-.75.18-.39.37-.79.55-1.18.64.05 7.71 1.25 8.87 1.55 3.64.96 7.33 1.69 10.97 2.68 1.21.33 2.73.76 3.95-.08 1.2-.82 1.96-2.78 1.65-4.34-1.1-5.49-14.92-7.25-17.53-7.57-3.84-.47-8.93-.64-14.94.39l-.69-.39c.86.2 6.67 1.42 11.45-2.68.21-.18 5.15-4.48 4.09-7.06-1.39-3.37-12.67-2.89-20.96 2.26-2.73 1.69-4.7 3.62-6 5.09-1.1-.35-2.96-.96-5.26-1.78-5.54-1.99-10.97-4.31-10.97-4.31s4.57-7.75 13.1-22.23c-2.78-.32-6.66-1.06-10.99-2.87-4.58-1.92-7.63-4.19-9.12-5.32-8.14-6.15-12.75-14.21-14.97-18.81-2.71 3.01-6.33 7.71-9.47 14.34z" fill="#F8A08A"/><path d="m155.32 485.23-2.22 7.52c3.93 1.36 7.32-.15 7.8-1.82.48-1.67-1.57-4.73-5.58-5.7zM150.02 495.21l-2.19 7.15c3.93 1.31 7.31-.11 7.79-1.7.47-1.58-1.59-4.51-5.6-5.45zM155.36 474.62c-.62 2.3-1.23 4.6-1.85 6.9 3.13 1.2 5.85-.22 6.25-1.75.4-1.53-1.2-4.31-4.4-5.15zM135.41 459.53c.4 1.92.79 3.84 1.19 5.76 3.38-.96 5.5-2.87 5.31-4.02-.2-1.17-2.88-2.2-6.5-1.74zM142.09 504.51c-.62 2.3-1.23 4.6-1.85 6.9 3.13 1.2 5.85-.22 6.25-1.75.4-1.52-1.2-4.3-4.4-5.15z" fill="#EABEB5"/><path d="M129.98 488.39c2.38-.17 5.36-.14 8.73.47 5.64 1.03 9.96 3.27 12.72 5.02M81.18 455.75c3.59.3 8.39 1.17 13.54 3.56 1.93.9 3.63 1.88 5.11 2.85" stroke="#B77165" stroke-miterlimit="10"/><path d="M235.61 197.06c5.08-.52 10.01 1.66 12.83 5.7 3.51 5.03 2.12 10.59 1.9 11.41M270.04 199.65c-5.08-.52-10.01 1.66-12.83 5.7-3.51 5.03-2.12 10.59-1.9 11.41M279.08 167.43c-.44.02-1.13.09-1.88.42-1.26.55-3.66 2.23-5.3 13.3-.4 2.69-.83 6.48-.94 11.09M265.67 163.2a66.72 66.72 0 0 0-4.01 16.04c-.55 4.54-.57 8.61-.36 12.03" stroke="#A94148" stroke-miterlimit="10"/><path d="M137.38 395.59c-3.5 6.31-7.01 13.24-10.39 20.77a278.569 278.569 0 0 0-11.11 29M222.32 362.66c3.5 6.31 7.01 13.24 10.39 20.77 4.61 10.28 8.24 20.04 11.11 29" stroke="#9E2626" stroke-miterlimit="10"/><path d="M169.88 352.56c2.67 7.29 9.45 12.2 16.91 12.33 8.4.14 16.06-5.82 18.15-14.4M75.96 411.899c1.68 3.99 5.66 11.91 14.12 18.53 10.65 8.35 21.9 9.56 26.16 9.8M253.68 319.38c3.76 8.38 7.95 17.09 12.61 26.05 5.47 10.51 11.03 20.3 16.54 29.35" stroke="#fff" stroke-width="4" stroke-miterlimit="10"/><path d="M835.1 667.58c.2 25.93.4 51.87.61 77.8-10.88 1.6-21.76 3.21-32.64 4.81.9-25.23 1.79-50.46 2.69-75.68 9.78-2.3 19.56-4.61 29.34-6.93zM734.58 662.101c-5.92 25.15-11.85 50.3-17.77 75.45 9.99 3.76 19.98 7.53 29.96 11.29l14.73-74.76c-8.97-4-17.95-7.99-26.92-11.98z" fill="#FC9692"/><path d="M787.34 557.92c-8.61 38.72-17.23 77.43-25.84 116.15-2.71 1.07-7.38 2.5-13.28 2.27-7.89-.31-13.63-3.42-16.25-5.08 10.61-37.54 21.23-75.09 31.84-112.63 7.85-.23 15.69-.47 23.53-.71zM835.82 561.48c-.23 36.74-.45 73.481-.68 110.231-1.91 1.54-6.53 4.839-13.34 5.729-7.9 1.03-13.92-1.8-16.04-2.93l5.82-111.609c8.08-.46 16.16-.941 24.24-1.421z" fill="#0B111D"/><path d="M729.6 591.78c19.87 3 51.25 5.29 88.4-2.5 35.08-7.35 61.67-20.83 78.42-31.01a4755.688 4755.688 0 0 0-71.73-179.74c-25.52-1.99-51.03-3.98-76.55-5.96-4.99 31.01-9.29 64.09-12.49 99.08-3.91 42.59-5.71 82.77-6.05 120.13z" fill="#6D3CA5"/><path d="M824.41 349.76c-24.56-46.83-142.46-40.21-149.51-16.33-4.04 13.71 27.27 37 46.14 46.98 12.78 6.76 23.46 9.33 30.86 11.05 13.17 3.07 59.28 13.8 73.22-6.06 6.84-9.74 4.77-25.2-.71-35.64z" fill="#6D3CA5"/><path d="M756.87 333.47c-5.51 1.49-13.31 5.84-15.02 13.08-2.61 11.03 10.66 21.38 14.28 24.2 13.67 10.66 35.87 15.81 42.8 7.21 3.69-4.58 1.9-11.64.98-15.28-4.59-18.03-25.94-33.83-43.04-29.21z" fill="#1E0C3C"/><path d="M785.4 356.73c-.63-.04-6.99-.41-8.61 4.19-1.39 3.95 1.53 9.2 4.67 11.44 4.31 3.08 11.1 2.02 12.83-2.73 1.12-3.08-.18-6.91-1.64-9.08-2.39-3.54-5.87-3.74-7.25-3.82z" fill="#D7D3E2"/><path d="M724.99 702.96c-5.12 21.34-10.24 42.68-15.36 64.01-.98 7.22 1.83 14.19 7.13 17.47 7.39 4.56 19.17 1.67 24.83-8.26l12.9-66.57c-3.07.85-10.62 2.47-19.2-.56-4.76-1.69-8.18-4.22-10.3-6.09z" fill="#EAE7F0"/><path d="M731.73 709.5c-1.59 5.56-3.06 11.16-4.4 16.79-.45 1.88 2.44 2.68 2.89.8 1.35-5.63 2.81-11.22 4.4-16.79.53-1.86-2.36-2.66-2.89-.8zM744.16 712.149c-1.59 5.56-3.06 11.16-4.4 16.79-.45 1.88 2.44 2.68 2.89.8 1.35-5.63 2.81-11.22 4.4-16.79.54-1.86-2.36-2.66-2.89-.8z" fill="#D2D6DF"/><path d="m835.7 709.111.12 66.09c-2.8 8.18-10.49 13.45-18.53 12.98-6.61-.39-12.57-4.6-15.5-10.87l2.76-68.5c2.69 1.55 9.92 5.24 19.35 4.17 5.26-.6 9.31-2.46 11.8-3.87z" fill="#EAE7F0"/><path d="M817.21 714.931v17.82c0 1.93 3 1.93 3 0v-17.82c0-1.93-3-1.94-3 0zM804.97 713.851v17.82c0 1.93 3 1.93 3 0v-17.82c0-1.93-3-1.93-3 0zM829.77 714.511c-.04 5.98-.09 11.97-.13 17.95-.01 1.93 2.99 1.93 3 0 .04-5.98.09-11.97.13-17.95.01-1.93-2.99-1.93-3 0z" fill="#D2D6DF"/><path d="M802.13 765.72c6.24 5.11 12.48 10.22 18.71 15.33 12.08-18.28 19.29-26.83 21.62-25.66 2.05 1.03.35 9.54-5.1 25.54 5.26 15.57 10.53 31.13 15.79 46.7-17.27-9.98-34.53-19.96-51.8-29.94.27-10.66.53-21.31.78-31.97z" fill="#8C394B"/><path d="M843.9 800.18c-4.91 3.31-9.81 6.63-14.72 9.94-9.25-5.06-18.5-10.11-27.75-15.17-.14 2-.27 4.01-.41 6.01 17.48 8.96 34.96 17.91 52.44 26.87-3.19-9.22-6.38-18.43-9.56-27.65zM838.15 783.92c-4.65 1.94-9.27 3.96-13.84 6.07-1.75.81-.23 3.4 1.51 2.59 4.34-2.01 8.71-3.93 13.13-5.77 1.75-.73.98-3.63-.8-2.89zM840.72 788.719c-4.65 1.94-9.27 3.96-13.84 6.07-1.75.81-.23 3.4 1.51 2.59 4.34-2.01 8.71-3.93 13.13-5.77 1.75-.73.98-3.63-.8-2.89z" fill="#EAE7F0"/><path d="M743.54 765.58c-7.39 3.22-14.78 6.45-22.17 9.67-6.66-20.87-11.28-31.06-13.85-30.57-2.25.43-2.93 9.09-2.02 25.96-10.38 11.59-20.76 23.17-31.15 34.76 21.27-2.62 42.53-5.25 63.8-7.87 1.8-10.65 3.59-21.3 5.39-31.95z" fill="#8C394B"/><path d="M693.9 783.59c2.99 4.38 5.97 8.76 8.96 13.15l36.03-3.63-.9 5.61-63.65 6.69c6.53-7.28 13.05-14.55 19.56-21.82zM701.79 775.43c3.28 3.65 6.49 7.37 9.63 11.15 1.23 1.49 3.35-.65 2.12-2.12-3.14-3.78-6.34-7.49-9.63-11.15-1.29-1.44-3.41.68-2.12 2.12z" fill="#EAE7F0"/><path d="M697.35 780.7c3.03 3.39 5.99 6.84 8.88 10.34 1.23 1.49 3.34-.64 2.12-2.12a350.27 350.27 0 0 0-8.88-10.34c-1.29-1.45-3.4.68-2.12 2.12z" fill="#EAE7F0"/><path d="M730.81 511.58c1.67.1 4.27.26 6.42-.36 4.85-1.39 5.87-6.3 9.27-10.69 7.53-9.76 23.45-12.68 27.15-8.67.73.79 1.34 2.23.89 3.24-.65 1.48-3.22 1.28-6.83 2.11-1.77.41-4.3 1.18-7.25 2.79-1.3.69-2.59 1.39-3.89 2.08-.05.05-.78.81-.53 1.81.19.81.94 1.41 1.83 1.47 1.98-.42 5.06-.92 8.83-.9 1.43.01 12.68.07 13.54 3.68.3 1.25-.76 2.49-1.07 2.85-1.43 1.66-3.98 2.25-6.65 1.54 4.39.12 7.4 1.36 7.72 3.09.21 1.12-.76 2.18-.95 2.38-2.4 2.5-6.98.67-13.9.24-2.5-.16-6.03-.18-10.34.48-.28 1.39-.55 2.77-.83 4.16 2.24-.87 5.97-1.97 10.51-1.53 4.8.47 11.2 2.73 11.23 5.33.01 1.17-1.27 2.27-2.38 2.73-3.13 1.31-5.71-1.58-10.1-1.9-2.03-.15-5.01.22-8.82 2.85-1.55 1.25-6.21 4.66-12.69 4.51-6.86-.15-11.63-4.2-13.69-5.94-1.65-1.4-2.85-2.77-3.65-3.79-3.57-2.02-7.14-4.05-10.7-6.07l9.03-9.03c1.81.61 4.51 1.34 7.85 1.54zM876.66 482.12c-3.1.19-4.66.28-6.42-.36-4.2-1.52-4.22-5.13-9.65-9.39-1.81-1.42-3.32-2.2-4.69-2.91-10.13-5.25-24.42-4.92-25.84-1.01-.36.98.1 2.18.65 2.85 1.37 1.67 4.1 1.15 7.66 1.13 2.29-.01 5.42.18 9.21 1.07.78.22 1.56.44 2.35.65-.11.58-.21 1.16-.32 1.74-1.98-.42-5.06-.92-8.83-.9-1.43.01-12.68.07-13.54 3.68-.3 1.25.76 2.49 1.07 2.85 1.43 1.66 3.98 2.25 6.65 1.54-4.39.12-7.4 1.36-7.72 3.09-.21 1.11.75 2.16.95 2.38 2.58 2.8 7.45.99 15.21.95 2.28-.01 5.62.13 9.71.89l.36 1.69c-3.57-.06-7.15-.13-10.72-.19-6.36-.11-9.22-.17-10.13 1.53-.48.88-.34 2.1.18 2.94 1.27 2.03 4.63 1.52 11.2 1.69 5.22.14 7.82.2 10.01.8 6.35 1.74 6.22 5.15 11.49 6.56 6.67 1.79 15.31-1.4 16.4-5.94.37-1.53-.22-3.06-.95-4.28 4.2-1.86 8.4-3.72 12.59-5.58l-9.03-9.03c-1.81.62-4.51 1.35-7.85 1.56z" fill="#FC9692"/><path d="M751.91 391.46c-50.63 3.9-85.5 44.6-82.66 83.53 2 27.49 22.69 52.6 51.8 64.63 2.3-4.66 4.65-10.22 6.65-16.63 2.53-8.1 3.84-15.48 4.51-21.62-3.31-1.96-20.91-12.83-23.38-31.45-2.93-22.07 16.4-47.6 48.33-54.1l-5.25-24.36zM812.05 386.12c64.64-8.16 110.78 28.93 112.16 62.07 1.37 32.6-40.72 57.64-42.96 58.94a62.808 62.808 0 0 1-9.8-16.69 62.525 62.525 0 0 1-4.19-18.16c1.7-1.18 15.08-10.76 14.53-24.62-.48-12.13-11.33-19.56-18.87-24.71-20.91-14.31-44.83-12.79-55.63-11.33 1.6-8.51 3.18-17.01 4.76-25.5z" fill="#6D3CA5"/><path d="M793.89 433.91a7.08 7.08 0 1 0 0-14.16 7.08 7.08 0 0 0 0 14.16zM810.51 457.72c1.42 4.43-1.78 8.27-2.71 9.38-4.09 4.89-10.48 4.83-11.5 4.8 2.13-1.96 4.25-3.92 6.38-5.89-3.94-.11-7.06-3.33-7.08-7.08-.01-4.03 3.58-6.86 7.08-7.08 3.95-.23 6.89 2.95 7.83 5.87z" fill="#FFFAFF"/><path d="M761.5 393.19c-.39 6.91-.79 13.81-1.18 20.72l-1.02 12.1c-.06.75-.15 2.23.77 3.44 1.07 1.41 2.92 1.69 3.75 1.76-.21 1.97-.42 3.93-.62 5.9.04.07.39.7 1.14.82.67.1 1.14-.28 1.22-.34.11-2.04.21-4.08.32-6.12.18.06 1.65.53 3.05-.37 1.32-.85 1.54-2.25 1.57-2.46.05-6.33.11-12.66.16-18.99.38-4.96.76-9.91 1.15-14.87-.22-.35-1.78-2.69-4.86-3.13-3.01-.45-5.13 1.27-5.45 1.54zM799.13 394.83c2.23 6.55 4.47 13.09 6.7 19.64 1.2 3.86 2.4 7.73 3.61 11.59.22.72.7 2.12 2 2.9 1.52.91 3.34.47 4.14.21.55 1.9 1.09 3.8 1.64 5.7.06.05.62.51 1.37.33.66-.16.95-.69 1-.78l-2.01-5.79c.19-.01 1.73-.13 2.68-1.49.9-1.28.58-2.67.53-2.87-2.33-5.88-4.66-11.77-6.99-17.65-1.51-4.74-3.02-9.47-4.53-14.21-.34-.24-2.66-1.82-5.68-1.07-2.95.73-4.26 3.12-4.46 3.49z" fill="#441884"/><path d="M772.51 491.45c-1.5-.91-3.7.14-3.97 1.34-.14.62.27 1.18.4 1.37 1.01 1.41 3.62 1.94 4.5.85.7-.86.33-2.8-.93-3.56zM832.64 466.73c1.5-.91 3.7.14 3.97 1.34.14.62-.27 1.18-.4 1.37-1.01 1.41-3.62 1.94-4.5.85-.7-.86-.33-2.79.93-3.56zM829.08 476.95c1.5-.91 3.7.14 3.97 1.34.14.62-.27 1.18-.4 1.37-1.01 1.41-3.62 1.94-4.5.85-.7-.86-.33-2.79.93-3.56zM829.64 484.11c1.5-.91 3.7.14 3.97 1.34.14.62-.27 1.18-.4 1.37-1.01 1.41-3.62 1.94-4.5.85-.7-.86-.33-2.79.93-3.56zM834.16 492.55c1.5-.91 3.7.14 3.97 1.34.14.62-.27 1.18-.4 1.37-1.01 1.41-3.62 1.94-4.5.85-.7-.86-.33-2.79.93-3.56zM777.78 506.77c-1.46-1.17-4.31.35-4.4 1.49-.04.49.43.89.83 1.23.97.83 2.96 1.68 3.92.73.82-.81.62-2.67-.35-3.45zM778.07 514.08c-1.46-1.17-4.31.35-4.4 1.49-.04.49.43.89.83 1.23.97.83 2.96 1.68 3.92.73.82-.81.63-2.67-.35-3.45zM774.91 525.22c-.67-.75-1.94-.76-2.78-.21-.53.34-1.07 1.02-1.01 1.78.1 1.25 1.77 2.34 3.01 1.8 1.2-.51 1.65-2.4.78-3.37z" fill="#EAB5B5"/><path d="M832.83 290.26c.72-.69 4.58-4.24 9.54-3.62 6.66.83 11.25 8.66 10.03 14.5-1.37 6.54-10.28 11.89-20.02 8.77.61-3.36 1.06-7.4 1-11.97-.03-2.8-.24-5.37-.55-7.68z" fill="#FD8890"/><path d="M835.82 303.92c-.24-.43 1.63-1.41 4.44-4.51 3.25-3.58 4.11-5.97 4.61-5.77.63.26.34 4.49-2.27 7.36-2.5 2.74-6.46 3.49-6.78 2.92z" fill="#5E3256"/><path d="M789.95 348.35c.59 4.23 1.19 8.47 1.78 12.7 1.66 3.67.61 7.6-1.7 9.08-2.83 1.82-8.2.37-10.22-4.55-.43-5.37-.87-10.73-1.3-16.1 3.81-.37 7.62-.75 11.44-1.13z" fill="#FC9692"/><mask id="G" style="mask-type:luminance" maskUnits="userSpaceOnUse" x="778" y="348" width="15" height="23"><path d="M789.95 348.35c.59 4.23 1.19 8.47 1.78 12.7 1.66 3.67.61 7.6-1.7 9.08-2.83 1.82-8.2.37-10.22-4.55-.43-5.37-.87-10.73-1.3-16.1 3.81-.37 7.62-.75 11.44-1.13z" fill="#fff"/></mask><g mask="url(#G)"><path d="M791.14 337.64c1.52 4.3 3.03 8.59 4.55 12.89-1.74 5.09-6.12 8.77-10.57 9.08-6.17.43-12.86-5.62-11.92-14.04 1.84-2.18 3.67-4.36 5.51-6.55l12.43-1.38z" fill="#5E3256"/></g><path d="M832.97 308.26c-.54 3.29-2.31 13.43-9.98 23.27-3.18 4.08-15.61 18.66-35.74 19.1-22.61.49-36.33-17.26-38.85-20.53-9.22-11.94-10.82-24.73-11.16-29.86-2-30.26 21.71-67.99 48.66-67.83 29.32.18 52.08 45.13 47.07 75.85z" fill="#FC9692"/><path d="M786.78 282.62c.02 2.49.13 4.91.32 7.28.25 2.43.35 4.78 1.02 6.91.3 1.08.73 2.13 1.24 3.14.25.51.52 1.01.83 1.5l.47.72.24.36.06.09.03.04.05.07c.15.18.24.52.23.66a1.081 1.081 0 0 1-.18.63c-.08.12-.1.13-.15.2-.07.08-.14.14-.19.17-.4.29-.66.4-.97.56-.3.14-.59.27-.88.38-.59.23-1.18.44-1.77.64-1.21.34-2.38.72-3.62.94l-.06-.14c1.12-.49 2.24-.99 3.34-1.51 1.09-.54 2.23-1.05 3.19-1.75.14-.15.12-.02-.01-.2l-.29-.36c-.19-.24-.38-.49-.55-.74-.36-.5-.68-1.03-.99-1.56-.6-1.08-1.09-2.22-1.45-3.4-.71-2.39-.73-4.88-.77-7.32-.01-2.46.24-4.91.72-7.32l.14.01z" fill="#8B2520"/><path d="M750.26 318.85c3.87 5.76 9.23 13.73 14.37 12.93 6.98-1.09 13.53-18.34 7.53-29.47-2.35-4.36-7.73-9.83-14.72-11.49-.45-.11-.83-.18-1.09-.23-.55-.47-6.51-5.48-10.36-3.53-4.04 2.04-3.03 10.36-2.54 14.44.28 2.2 1.33 9.19 6.81 17.35z" fill="url(#H)"/><path d="M827.64 309.18c-.8 6.89-1.91 16.43-6.84 18.08-6.7 2.23-20.43-10.1-20.21-22.74.09-4.95 2.36-12.28 7.81-16.96.35-.3.65-.54.86-.7.27-.67 3.27-7.86 7.59-7.89 4.53-.04 7.45 7.82 8.88 11.67.78 2.08 3.05 8.78 1.91 18.54z" fill="url(#I)"/><mask id="J" style="mask-type:alpha" maskUnits="userSpaceOnUse" x="795" y="279" width="32" height="24"><path d="M825.83 282.46c-.24-.69-.7-1.65-1.64-2.31-1.41-1-3.13-.78-3.95-.67-2.86.4-11.72 1.7-23.77 3.69-.26 1-1.71 6.97 1.94 12.51 3.39 5.15 9.69 7.64 15.12 6.62 7.71-1.45 13.76-10.01 12.3-19.84z" fill="#D9D9D9" stroke="#0A080A" stroke-width=".75" stroke-miterlimit="10"/></mask><g mask="url(#J)"><path d="M825.83 282.46c-.24-.69-.7-1.65-1.64-2.31-1.41-1-3.13-.78-3.95-.67-2.86.4-11.72 1.7-23.77 3.69-.26 1-1.71 6.97 1.94 12.51 3.39 5.15 9.69 7.64 15.12 6.62 7.71-1.45 13.76-10.01 12.3-19.84z" fill="#FFFAFF" stroke="#0A080A" stroke-width=".75" stroke-miterlimit="10"/><mask id="K" style="mask-type:luminance" maskUnits="userSpaceOnUse" x="795" y="277" width="31" height="26"><path d="M824.342 279.27c-1.426-.71-2.248-1.119-3.676-1.838l-24.917 7.929c-.103 1.028-.62 7.149 3.837 12.063 4.141 4.568 10.748 6.062 15.957 4.22 7.615-2.701 12.332-12.591 8.799-22.374z" fill="#fff"/></mask><g mask="url(#K)"><path d="M811.817 298.57c5.692-.884 9.621-6.007 8.777-11.442-.845-5.436-6.143-9.125-11.835-8.241-5.692.884-9.621 6.007-8.777 11.443.844 5.435 6.143 9.124 11.835 8.24z" fill="#0075CF"/></g><path d="M825.83 282.46c-.24-.69-.7-1.65-1.64-2.31-1.41-1-3.13-.78-3.95-.67-2.86.4-11.72 1.7-23.77 3.69-.26 1-1.71 6.97 1.94 12.51 3.39 5.15 9.69 7.64 15.12 6.62 7.71-1.45 13.76-10.01 12.3-19.84z" stroke="#0A080A" stroke-width=".75" stroke-miterlimit="10"/></g><mask id="L" style="mask-type:alpha" maskUnits="userSpaceOnUse" x="747" y="279" width="32" height="25"><path d="M748.39 283.56c.01-.1.04-.19.09-.28.27-.5.95-1.54 2.26-2.25 1.42-.77 2.75-.69 3.24-.64l23.28 3.43c.32.05.57.28.64.6.41 1.82 1.23 7.06-1.97 12-3.35 5.17-9.63 7.72-15.07 6.74-7.68-1.39-13.76-9.82-12.47-19.6z" fill="#D9D9D9" stroke="#0A080A" stroke-width=".75" stroke-miterlimit="10"/></mask><g mask="url(#L)"><path d="M748.39 283.56c.01-.1.04-.19.09-.28.27-.5.95-1.54 2.26-2.25 1.42-.77 2.75-.69 3.24-.64l23.28 3.43c.32.05.57.28.65.6.41 1.82 1.23 7.06-1.97 12-3.35 5.17-9.63 7.72-15.07 6.74-7.69-1.39-13.77-9.82-12.48-19.6z" fill="#fff" stroke="#0A080A" stroke-width=".75" stroke-miterlimit="10"/><mask id="M" style="mask-type:luminance" maskUnits="userSpaceOnUse" x="747" y="279" width="31" height="25"><path d="M747.756 287.549a.557.557 0 0 1 .214-.502l1.038-2.328 2.697-.408a.57.57 0 0 1 .212-.09l22.871-4.449a.522.522 0 0 1 .552.241c.89 1.466 4.14 7.61 1.16 14.392-2.214 5.038-7.098 8.666-12.258 8.974-7.494.441-15.223-6.111-16.486-15.83z" fill="#fff"/></mask><g mask="url(#M)"><path d="M767.372 299.21c5.627-1.84 8.728-7.8 6.926-13.312-1.803-5.512-7.826-8.489-13.453-6.649-5.628 1.84-8.728 7.8-6.926 13.312 1.802 5.512 7.825 8.489 13.453 6.649z" fill="#0075CF"/></g><path d="M748.39 283.56c.01-.1.04-.19.09-.28.27-.5.95-1.54 2.26-2.25 1.42-.77 2.75-.69 3.24-.64l23.28 3.43c.32.05.57.28.64.6.41 1.82 1.23 7.06-1.97 12-3.35 5.17-9.63 7.72-15.07 6.74-7.68-1.39-13.76-9.82-12.47-19.6z" stroke="#0A080A" stroke-width=".75" stroke-miterlimit="10"/></g><path d="M805.79 308.51c-1.49 1.67-8.51 9.2-19.16 9.27-3.75.02-6.87-.88-9.08-1.78" stroke="#7E1E1F" stroke-miterlimit="10"/><path d="M776.2 270.571c.66.8.8 1.91.35 2.81-.63 1.26-2.03 1.4-2.11 1.4a14.99 14.99 0 0 0-6.06-2.41c-3.32-.53-5.98.19-7.28.64-.07-.04-1.31-.71-1.4-2.11-.07-1.01.49-1.97 1.41-2.46 1.61-.5 4.83-1.24 8.75-.47 2.89.58 5.05 1.75 6.34 2.6zM796.89 271.88c-.73.74-.97 1.82-.61 2.76.51 1.31 1.89 1.58 1.97 1.59 1.47-.66 4.07-1.59 7.41-1.58 2.58 0 4.66.56 6.03 1.05.07-.03 1.37-.58 1.59-1.97.16-1-.3-2.01-1.17-2.58-1.44-.6-4.19-1.51-7.71-1.34a18.1 18.1 0 0 0-7.51 2.07z" fill="#22180E"/><path d="M833.15 291.07c1.91-5.58 4.06-14.83 1.57-25.33-4.38-18.45-21.23-32.94-43.03-37.75-8.13-.44-24.59.01-38.92 10.8-16.71 12.58-27.3 36.77-20.94 43.96 1.75 1.98 4.57 2.42 6.82 2.45.95-3.62 2.64-9.03 5.79-15.78 0 0 .05-.1.12-.25 0 0 .12-.27.25-.53 1.3-2.73 36.13-32.35 36.13-32.35 5.22-4.44 5.18-4.94 6.91-5.42 6.14-1.69 36.14 17.16 39.86 37.26.1.54.19 1.11.46 2.61 1.63 8.89 3.57 15.8 4.98 20.33z" fill="#22180E"/><path d="M787.7 227.66c6.84 19.49 17.53 30.23 23.55 35.31 8.18 6.91 16.22 10.59 27.22 15.54 13.15 5.92 24.63 9.45 32.77 11.58-4.36-1.97-10.83-5.45-17.11-11.48-2.23-2.14-3.81-4-5.06-5.74-2.4-3.34-4.11-5.86-4.6-6.67-10.19-16.67-19.37-24.17-19.37-24.17-10.73-8.76-22.78-11.58-27.89-12.78-3.85-.89-7.14-1.35-9.51-1.59z" fill="#401C1E"/><path d="M793.49 228.49a164.199 164.199 0 0 1-28.89 31.53 164.348 164.348 0 0 1-35.68 22.84c-.06-2.88-.02-6.88.43-11.63.08-.8.58-8.69 2.16-13.27 4.07-11.77 14.42-18.54 17.54-20.52 16.96-10.77 36.24-10.88 41.04-9.88 1.24.25 2.37.57 3.4.93zM771.17 222.22c-13.13-21.8-27.58-28.99-37.61-31.46-15.8-3.89-25.19 3.2-51.92 2.76a149.87 149.87 0 0 1-34.43-4.61c6.97 4.56 17.37 10.27 30.94 14.1 11.82 3.34 21.26 4.2 29 4.25-3.1 1.89-6.12 3.71-10.98 4.35-11.29 1.47-19.45-4.46-19.76-3.85-.4.78 18.35 21.5 46.6 18.95 6.06-.55 8.64-2.47 22.22-3.95 10.82-1.19 19.84-.95 25.94-.54z" fill="#401C1E"/><mask id="N" style="mask-type:luminance" maskUnits="userSpaceOnUse" x="647" y="188" width="125" height="39"><path d="M771.17 222.22c-13.13-21.8-27.58-28.99-37.61-31.46-15.8-3.89-25.19 3.2-51.92 2.76a149.87 149.87 0 0 1-34.43-4.61c6.97 4.56 17.37 10.27 30.94 14.1 11.82 3.34 21.26 4.2 29 4.25-3.1 1.89-6.12 3.71-10.98 4.35-11.29 1.47-19.45-4.46-19.76-3.85-.4.78 18.35 21.5 46.6 18.95 6.06-.55 8.64-2.47 22.22-3.95 10.82-1.19 19.84-.95 25.94-.54z" fill="#fff"/></mask><g mask="url(#N)"><path d="M785.44 226.291c-8.73-5.4-31.68-12.95-49.47-16.66-13.98-2.92-20.62-2.36-33.1-3.25-14.15-1-33.31-2.59-55.14-18.32" stroke="#351A15" stroke-width=".75" stroke-miterlimit="10"/></g><path d="M791.22 228.76c6.14 9.87 16.77 24.28 33.82 37.38a140.764 140.764 0 0 0 36.86 20.36M736.29 270.75c8.97-4.77 19.99-11.76 31.16-21.89 7.68-6.97 13.79-13.93 18.56-20.14" stroke="#351A15" stroke-width=".75" stroke-miterlimit="10"/><path d="M800.75 249.24c1.74.01 3.48.02 5.22.04z" fill="#22180E"/><path d="M739.83 286.08c-.65-.76-4.15-4.66-9.15-4.52-6.81.19-12.11 7.77-11.38 13.47.83 6.42 9.57 12.55 20.29 10.13-.71-2.81-1.36-6.78-1.06-11.49.2-2.96.72-5.52 1.3-7.59z" fill="#FC8195"/><path d="M736.58 298.08c.19-.45-1.76-1.23-4.88-4.02-3.6-3.23-4.71-5.51-5.18-5.25-.6.32.13 4.5 3.02 7.08 2.76 2.46 6.77 2.79 7.04 2.19z" fill="#5E3256"/><path d="M803.59 307.77c1.36-.9 2.87-.63 3.39.18.44.69.06 1.64 0 1.78" stroke="#7E1E1F" stroke-width=".75" stroke-miterlimit="10"/></g><defs><radialGradient id="d" cx="0" cy="0" r="1" gradientUnits="userSpaceOnUse" gradientTransform="rotate(176.775 282.178 112.673) scale(24.9738 17.8591)"><stop offset=".422" stop-color="#F87D79"/><stop offset=".604" stop-color="#FA817A"/><stop offset=".735" stop-color="#FF897B"/></radialGradient><radialGradient id="e" cx="0" cy="0" r="1" gradientUnits="userSpaceOnUse" gradientTransform="matrix(24.49465 -1.3801 .98693 17.51652 617.032 206.537)"><stop offset=".422" stop-color="#F87D79"/><stop offset=".604" stop-color="#FA817A"/><stop offset=".735" stop-color="#FF897B"/></radialGradient><radialGradient id="j" cx="0" cy="0" r="1" gradientUnits="userSpaceOnUse" gradientTransform="rotate(-14.266 1062.867 -1525.08) scale(24.973 17.8582)"><stop offset=".422" stop-color="#F87D79"/><stop offset=".604" stop-color="#FA817A"/><stop offset=".735" stop-color="#FF897B"/></radialGradient><radialGradient id="k" cx="0" cy="0" r="1" gradientUnits="userSpaceOnUse" gradientTransform="matrix(-22.15068 10.54494 -7.54091 -15.84044 366.289 226.27)"><stop offset=".422" stop-color="#F87D79"/><stop offset=".604" stop-color="#FA817A"/><stop offset=".735" stop-color="#FF897B"/></radialGradient><radialGradient id="u" cx="0" cy="0" r="1" gradientUnits="userSpaceOnUse" gradientTransform="translate(215.558 308.547) scale(27.3123)"><stop offset=".249" stop-color="#F28F7C"/><stop offset=".452" stop-color="#F3917D"/><stop offset=".884" stop-color="#F8A08A"/></radialGradient><radialGradient id="w" cx="0" cy="0" r="1" gradientUnits="userSpaceOnUse" gradientTransform="rotate(180 73.198 153.558) scale(25.2287)"><stop stop-color="#F28F7C"/><stop offset=".368" stop-color="#F2907D"/><stop offset=".884" stop-color="#F8A08A"/></radialGradient><radialGradient id="H" cx="0" cy="0" r="1" gradientUnits="userSpaceOnUse" gradientTransform="rotate(166.356 361.33 199.604) scale(19.7329)"><stop stop-color="#ED7D91"/><stop offset=".668" stop-color="#FB9693"/></radialGradient><radialGradient id="I" cx="0" cy="0" r="1" gradientUnits="userSpaceOnUse" gradientTransform="rotate(-13.644 1678.333 -3252.405) scale(19.7329)"><stop stop-color="#ED7D91"/><stop offset=".668" stop-color="#FB9693"/></radialGradient><clipPath id="a"><path fill="#fff" d="M0 0h977.64v846.19H0z"/></clipPath></defs></svg>